<svg width="50" height="50" viewBox="0 0 50 50" fill="none" xmlns="http://www.w3.org/2000/svg">
<path d="M50 25C50 11.1929 38.8071 0 25 0C11.1929 0 0 11.1929 0 25C0 38.8071 11.1929 50 25 50C38.8071 50 50 38.8071 50 25Z" fill="#556EE6"/>
<path d="M25 34C29.9706 34 34 29.9706 34 25C34 20.0294 29.9706 16 25 16C20.0294 16 16 20.0294 16 25C16 29.9706 20.0294 34 25 34Z" stroke="white" stroke-linecap="round" stroke-linejoin="round"/>
<path d="M25 28C27.0711 28 28.75 26.3211 28.75 24.25C28.75 22.1789 27.0711 20.5 25 20.5C22.9289 20.5 21.25 22.1789 21.25 24.25C21.25 26.3211 22.9289 28 25 28Z" stroke="white" stroke-linecap="round" stroke-linejoin="round"/>
<path d="M18.9844 31.6913C19.5493 30.5806 20.4106 29.6478 21.4729 28.9963C22.5352 28.3448 23.757 28 25.0032 28C26.2494 28 27.4712 28.3448 28.5335 28.9963C29.5958 29.6478 30.4571 30.5806 31.022 31.6913" stroke="white" stroke-linecap="round" stroke-linejoin="round"/>
</svg>
