<svg width="28" height="28" viewBox="0 0 28 28" fill="none" xmlns="http://www.w3.org/2000/svg">
<path d="M17.7851 16.8524C17.788 17.9523 17.531 19.0373 17.0351 20.0191C16.4472 21.1955 15.5433 22.185 14.4247 22.8768C13.3061 23.5685 12.017 23.9352 10.7018 23.9357C9.60192 23.9386 8.51691 23.6816 7.53515 23.1857L2.78516 24.769L4.36849 20.0191C3.8726 19.0373 3.61562 17.9523 3.61849 16.8524C3.619 15.5372 3.98566 14.2481 4.67742 13.1295C5.36917 12.0109 6.3587 11.107 7.53515 10.5191C8.51691 10.0232 9.60192 9.7662 10.7018 9.76907H11.1185C12.8554 9.86489 14.496 10.598 15.7261 11.8281C16.9562 13.0582 17.6893 14.6988 17.7851 16.4357V16.8524Z" stroke="white" stroke-width="2" stroke-linecap="round" stroke-linejoin="round"/>
</svg>
