<svg width="21" height="21" viewBox="0 0 21 21" fill="none" xmlns="http://www.w3.org/2000/svg">
<path d="M18.4805 10.4863C18.4833 11.5862 18.2264 12.6712 17.7305 13.653C17.1425 14.8294 16.2386 15.819 15.12 16.5107C14.0014 17.2025 12.7123 17.5691 11.3971 17.5696C10.2972 17.5725 9.21223 17.3155 8.23047 16.8196L3.48047 18.403L5.0638 13.653C4.56791 12.6712 4.31093 11.5862 4.3138 10.4863C4.31431 9.17111 4.68098 7.88202 5.37273 6.76344C6.06449 5.64485 7.05401 4.74095 8.23047 4.15298C9.21223 3.65709 10.2972 3.40011 11.3971 3.40298H11.8138C13.5508 3.4988 15.1913 4.23195 16.4214 5.46203C17.6515 6.69211 18.3846 8.33269 18.4805 10.0696V10.4863Z" stroke="#556EE6" stroke-linecap="round" stroke-linejoin="round"/>
</svg>
