<svg width="60" height="129" viewBox="0 0 60 129" fill="none" xmlns="http://www.w3.org/2000/svg">
<circle cx="30" cy="30" r="28.5" fill="#556EE6" stroke="#556EE6" stroke-width="3"/>
<path d="M20.5687 64.4784C20.7448 64.2091 20.9633 63.9929 21.2093 63.8447C21.4553 63.6965 21.7229 63.6197 21.9938 63.6198H38.0063C38.2771 63.6197 38.5447 63.6965 38.7907 63.8447C39.0367 63.9929 39.2552 64.2091 39.4312 64.4784L44.3231 71.9462C44.7599 72.6131 45 73.4624 45 74.3407V74.9662C45.0001 76.1806 44.7102 77.3646 44.1709 78.3528C43.6316 79.3411 42.8698 80.0841 41.9919 80.4782C41.114 80.8722 40.164 80.8975 39.2746 80.5506C38.3852 80.2037 37.6009 79.5018 37.0312 78.5432C36.6153 79.2442 36.0822 79.8114 35.4728 80.2014C34.8634 80.5913 34.194 80.7936 33.5156 80.7928C32.8373 80.7938 32.1677 80.5916 31.5583 80.2016C30.949 79.8117 30.4159 79.2444 30 78.5432C29.5841 79.2444 29.051 79.8117 28.4417 80.2016C27.8323 80.5916 27.1627 80.7938 26.4844 80.7928C25.806 80.7938 25.1365 80.5916 24.5271 80.2016C23.9177 79.8117 23.3846 79.2444 22.9688 78.5432C22.3991 79.5018 21.6148 80.2037 20.7254 80.5506C19.836 80.8975 18.886 80.8722 18.0081 80.4782C17.1302 80.0841 16.3684 79.3411 15.8291 78.3528C15.2898 77.3646 14.9999 76.1806 15 74.9662V74.3407C15 73.4624 15.2401 72.6131 15.6769 71.9462L20.5706 64.476L20.5687 64.4784ZM23.9062 74.9662C23.9062 75.8609 24.1779 76.7189 24.6614 77.3515C25.1449 77.9841 25.8006 78.3395 26.4844 78.3395C27.1681 78.3395 27.8239 77.9841 28.3074 77.3515C28.7909 76.7189 29.0625 75.8609 29.0625 74.9662C29.0625 74.6409 29.1613 74.3289 29.3371 74.0989C29.5129 73.8688 29.7514 73.7396 30 73.7396C30.2486 73.7396 30.4871 73.8688 30.6629 74.0989C30.8387 74.3289 30.9375 74.6409 30.9375 74.9662C30.9375 75.8609 31.2091 76.7189 31.6926 77.3515C32.1761 77.9841 32.8319 78.3395 33.5156 78.3395C34.1994 78.3395 34.8551 77.9841 35.3386 77.3515C35.8221 76.7189 36.0938 75.8609 36.0938 74.9662C36.0938 74.6409 36.1925 74.3289 36.3683 74.0989C36.5442 73.8688 36.7826 73.7396 37.0312 73.7396C37.2799 73.7396 37.5183 73.8688 37.6942 74.0989C37.87 74.3289 37.9688 74.6409 37.9688 74.9662C37.9688 75.8609 38.2404 76.7189 38.7239 77.3515C39.2074 77.9841 39.8631 78.3395 40.5469 78.3395C41.2306 78.3395 41.8864 77.9841 42.3699 77.3515C42.8534 76.7189 43.125 75.8609 43.125 74.9662V74.3407C43.125 74.0483 43.0452 73.7655 42.9 73.5433L38.0063 66.073H21.9938L17.1 73.5433C16.9548 73.7655 16.875 74.0483 16.875 74.3407V74.9662C16.875 75.8609 17.1466 76.7189 17.6301 77.3515C18.1136 77.9841 18.7694 78.3395 19.4531 78.3395C20.1369 78.3395 20.7926 77.9841 21.2761 77.3515C21.7596 76.7189 22.0312 75.8609 22.0312 74.9662C22.0312 74.6409 22.13 74.3289 22.3058 74.0989C22.4817 73.8688 22.7201 73.7396 22.9688 73.7396C23.2174 73.7396 23.4558 73.8688 23.6317 74.0989C23.8075 74.3289 23.9062 74.6409 23.9062 74.9662ZM17.8125 82.0195C18.0611 82.0195 18.2996 82.1487 18.4754 82.3787C18.6512 82.6088 18.75 82.9208 18.75 83.2461V97.9659H20.625V85.6994C20.625 85.0488 20.8225 84.4248 21.1742 83.9647C21.5258 83.5046 22.0027 83.2461 22.5 83.2461H28.125C28.6223 83.2461 29.0992 83.5046 29.4508 83.9647C29.8025 84.4248 30 85.0488 30 85.6994V97.9659H41.25V83.2461C41.25 82.9208 41.3488 82.6088 41.5246 82.3787C41.7004 82.1487 41.9389 82.0195 42.1875 82.0195C42.4361 82.0195 42.6746 82.1487 42.8504 82.3787C43.0262 82.6088 43.125 82.9208 43.125 83.2461V97.9659H44.0625C44.3111 97.9659 44.5496 98.0951 44.7254 98.3252C44.9012 98.5552 45 98.8672 45 99.1925C45 99.5179 44.9012 99.8299 44.7254 100.06C44.5496 100.29 44.3111 100.419 44.0625 100.419H15.9375C15.6889 100.419 15.4504 100.29 15.2746 100.06C15.0988 99.8299 15 99.5179 15 99.1925C15 98.8672 15.0988 98.5552 15.2746 98.3252C15.4504 98.0951 15.6889 97.9659 15.9375 97.9659H16.875V83.2461C16.875 82.9208 16.9738 82.6088 17.1496 82.3787C17.3254 82.1487 17.5639 82.0195 17.8125 82.0195ZM22.5 97.9659H28.125V85.6994H22.5V97.9659ZM31.875 85.6994C31.875 85.0488 32.0725 84.4248 32.4242 83.9647C32.7758 83.5046 33.2527 83.2461 33.75 83.2461H37.5C37.9973 83.2461 38.4742 83.5046 38.8258 83.9647C39.1775 84.4248 39.375 85.0488 39.375 85.6994V93.0593C39.375 93.71 39.1775 94.334 38.8258 94.794C38.4742 95.2541 37.9973 95.5126 37.5 95.5126H33.75C33.2527 95.5126 32.7758 95.2541 32.4242 94.794C32.0725 94.334 31.875 93.71 31.875 93.0593V85.6994ZM37.5 85.6994H33.75V93.0593H37.5V85.6994Z" fill="white"/>
<path d="M38.0469 24.8854L27.0469 35.8854L22.0469 30.8854" stroke="white" stroke-width="2" stroke-linecap="round" stroke-linejoin="round"/>
</svg>
