<?xml version="1.0" standalone="no"?>
<!DOCTYPE svg PUBLIC "-//W3C//DTD SVG 20010904//EN"
 "http://www.w3.org/TR/2001/REC-SVG-20010904/DTD/svg10.dtd">
<svg version="1.0" xmlns="http://www.w3.org/2000/svg"
 width="24.000000pt" height="24.000000pt" viewBox="0 0 24.000000 24.000000"
 preserveAspectRatio="xMidYMid meet">

<g transform="translate(0.000000,24.000000) scale(0.100000,-0.100000)"
fill="#000000" stroke="none">
<path d="M73 193 l47 -48 47 48 48 47 -95 0 -95 0 48 -47z"/>
<path d="M0 120 l0 -95 47 48 48 47 -48 47 -47 48 0 -95z"/>
<path d="M190 165 l-44 -45 47 -48 47 -47 0 93 c0 50 -1 92 -3 92 -2 0 -23
-20 -47 -45z"/>
<path d="M70 45 l-44 -45 94 0 94 0 -44 45 c-24 25 -47 45 -50 45 -3 0 -26
-20 -50 -45z"/>
</g>
</svg>
