<svg width="25" height="25" viewBox="0 0 25 25" fill="none" xmlns="http://www.w3.org/2000/svg">
<path d="M3.12695 6.25134H5.12695H21.127" stroke="white" stroke-width="2" stroke-linecap="round" stroke-linejoin="round"/>
<path d="M8.12695 6.25134V4.25134C8.12695 3.72091 8.33767 3.2122 8.71274 2.83713C9.08781 2.46206 9.59652 2.25134 10.127 2.25134H14.127C14.6574 2.25134 15.1661 2.46206 15.5412 2.83713C15.9162 3.2122 16.127 3.72091 16.127 4.25134V6.25134M19.127 6.25134V20.2513C19.127 20.7818 18.9162 21.2905 18.5412 21.6656C18.1661 22.0406 17.6574 22.2513 17.127 22.2513H7.12695C6.59652 22.2513 6.08781 22.0406 5.71274 21.6656C5.33767 21.2905 5.12695 20.7818 5.12695 20.2513V6.25134H19.127Z" stroke="white" stroke-width="2" stroke-linecap="round" stroke-linejoin="round"/>
<path d="M10.127 11.2513V17.2513" stroke="white" stroke-width="2" stroke-linecap="round" stroke-linejoin="round"/>
<path d="M14.127 11.2513V17.2513" stroke="white" stroke-width="2" stroke-linecap="round" stroke-linejoin="round"/>
</svg>
