<svg width="25" height="25" viewBox="0 0 25 25" fill="none" xmlns="http://www.w3.org/2000/svg">
<path d="M17.127 3.2514C17.3896 2.98876 17.7014 2.78042 18.0446 2.63827C18.3877 2.49613 18.7555 2.42297 19.127 2.42297C19.4984 2.42297 19.8662 2.49613 20.2093 2.63827C20.5525 2.78042 20.8643 2.98876 21.127 3.2514C21.3896 3.51404 21.5979 3.82585 21.7401 4.16901C21.8822 4.51217 21.9554 4.87997 21.9554 5.2514C21.9554 5.62284 21.8822 5.99063 21.7401 6.33379C21.5979 6.67695 21.3896 6.98876 21.127 7.2514L7.62695 20.7514L2.12695 22.2514L3.62695 16.7514L17.127 3.2514Z" stroke="white" stroke-width="2" stroke-linecap="round" stroke-linejoin="round"/>
</svg>
