<svg width="21" height="21" viewBox="0 0 21 21" fill="none" xmlns="http://www.w3.org/2000/svg">
<g clip-path="url(#clip0)">
<path d="M9.74805 3.84739H3.91471C3.47269 3.84739 3.04876 4.02298 2.7362 4.33554C2.42364 4.64811 2.24805 5.07203 2.24805 5.51406V17.1807C2.24805 17.6227 2.42364 18.0467 2.7362 18.3592C3.04876 18.6718 3.47269 18.8474 3.91471 18.8474H15.5814C16.0234 18.8474 16.4473 18.6718 16.7599 18.3592C17.0725 18.0467 17.248 17.6227 17.248 17.1807V11.3474" stroke="#1B9907" stroke-width="2" stroke-linecap="round" stroke-linejoin="round"/>
<path d="M15.998 2.59739C16.3296 2.26587 16.7792 2.07962 17.248 2.07962C17.7169 2.07962 18.1665 2.26587 18.498 2.59739C18.8296 2.92891 19.0158 3.37855 19.0158 3.84739C19.0158 4.31623 18.8296 4.76587 18.498 5.09739L10.5814 13.0141L7.24805 13.8474L8.08138 10.5141L15.998 2.59739Z" stroke="#1B9907" stroke-width="2" stroke-linecap="round" stroke-linejoin="round"/>
</g>
<defs>
<clipPath id="clip0">
<rect width="20" height="20" fill="white" transform="translate(0.582031 0.514053)"/>
</clipPath>
</defs>
</svg>
