<svg width="16" height="16" viewBox="0 0 16 16" fill="none" xmlns="http://www.w3.org/2000/svg">
<g clip-path="url(#clip0)">
<path d="M10.9316 2.65375C11.0958 2.4896 11.2907 2.35939 11.5051 2.27055C11.7196 2.18171 11.9495 2.13599 12.1816 2.13599C12.4138 2.13599 12.6437 2.18171 12.8581 2.27055C13.0726 2.35939 13.2675 2.4896 13.4316 2.65375C13.5958 2.81791 13.726 3.01278 13.8148 3.22726C13.9037 3.44173 13.9494 3.67161 13.9494 3.90375C13.9494 4.1359 13.9037 4.36577 13.8148 4.58025C13.726 4.79472 13.5958 4.9896 13.4316 5.15375L4.99414 13.5913L1.55664 14.5288L2.49414 11.0913L10.9316 2.65375Z" stroke="black" stroke-linecap="round" stroke-linejoin="round"/>
</g>
<defs>
<clipPath id="clip0">
<rect width="15" height="15" fill="white" transform="translate(0.306641 0.778809)"/>
</clipPath>
</defs>
</svg>
