<svg width="488" height="444" viewBox="0 0 488 444" fill="none" xmlns="http://www.w3.org/2000/svg">
<path d="M238.904 443.287C370.847 443.287 477.808 437.154 477.808 429.589C477.808 422.025 370.847 415.892 238.904 415.892C106.961 415.892 0 422.025 0 429.589C0 437.154 106.961 443.287 238.904 443.287Z" fill="#F5F5F5"/>
<path d="M382.648 162.359C382.451 165.759 382.032 168.881 381.564 172.124C381.095 175.366 380.418 178.512 379.703 181.683C378.236 188.151 376.059 194.443 373.21 200.45C372.204 202.339 370.821 204.009 369.144 205.363C367.766 206.513 366.299 207.557 364.757 208.484C361.879 210.216 358.877 211.741 355.775 213.046C349.753 215.581 343.54 217.656 337.194 219.253L335.666 214.764C338.5 213.554 341.408 212.211 344.217 210.844C347.026 209.477 349.836 208.097 352.522 206.597C355.177 205.168 357.741 203.579 360.198 201.841C361.33 201.044 362.401 200.167 363.402 199.216C364.167 198.528 364.798 197.707 365.262 196.796C366.388 194.089 367.354 191.322 368.158 188.507C368.946 185.615 369.673 182.699 370.289 179.735C370.906 176.77 371.398 173.769 371.842 170.756C372.286 167.743 372.643 164.706 372.914 161.802L382.648 162.359Z" fill="#E58A7B"/>
<path d="M376.007 150.997C372.076 151.977 369.328 167.864 369.328 167.864L380.159 175.124C380.159 175.124 390.546 159.104 387.552 154.869C384.373 150.355 381.749 149.508 376.007 150.997Z" fill="#407BFF"/>
<path opacity="0.5" d="M376.007 150.997C372.076 151.977 369.328 167.864 369.328 167.864L380.159 175.124C380.159 175.124 390.546 159.104 387.552 154.869C384.373 150.355 381.749 149.508 376.007 150.997Z" fill="black"/>
<path d="M376.364 154.494L373.345 170.502L379.432 174.556L376.364 154.494Z" fill="#407BFF"/>
<path opacity="0.7" d="M376.364 154.494L373.345 170.502L379.432 174.556L376.364 154.494Z" fill="black"/>
<path d="M337.896 214.522L331.131 207.795L330.244 217.281C330.244 217.281 335.308 220.645 338.869 218.842L337.896 214.522Z" fill="#E58A7B"/>
<path d="M323.172 206.79L322.864 214.764L330.244 217.281L331.131 207.795L323.172 206.79Z" fill="#E58A7B"/>
<path d="M397.274 418.264H387.737L387.096 396.58H396.633L397.274 418.264Z" fill="#E58A7B"/>
<path d="M481.418 374.776L474.148 380.838L457.514 366.257L464.784 360.195L481.418 374.776Z" fill="#E58A7B"/>
<path d="M472.165 380.112L479.176 372.186C479.292 372.046 479.457 371.953 479.64 371.926C479.822 371.899 480.008 371.94 480.161 372.041L487.345 376.615C487.522 376.736 487.671 376.892 487.782 377.074C487.893 377.255 487.964 377.458 487.989 377.668C488.015 377.879 487.995 378.092 487.93 378.294C487.866 378.496 487.759 378.683 487.616 378.841C485.152 381.564 483.759 382.75 480.666 386.234C478.757 388.376 476.194 391.704 473.569 394.705C470.945 397.705 467.815 395.261 468.641 393.797C472.337 387.239 471.45 384.928 471.511 381.697C471.525 381.108 471.758 380.545 472.165 380.112Z" fill="#263238"/>
<path d="M387.404 417.199H398.124C398.309 417.197 398.488 417.261 398.628 417.378C398.769 417.496 398.861 417.66 398.888 417.84L400.12 426.165C400.142 426.374 400.12 426.587 400.053 426.787C399.986 426.988 399.877 427.172 399.733 427.329C399.589 427.485 399.413 427.61 399.216 427.695C399.02 427.78 398.807 427.823 398.592 427.822C394.896 427.822 393.047 427.544 388.341 427.544C385.445 427.544 379.444 427.846 375.452 427.846C371.46 427.846 371.226 423.95 372.902 423.599C380.368 422.026 383.313 419.848 385.827 417.767C386.272 417.408 386.828 417.208 387.404 417.199Z" fill="#263238"/>
<path d="M387.096 396.592L387.429 407.773H396.966L396.645 396.592H387.096Z" fill="#CF6F64"/>
<path d="M464.796 360.195L457.526 366.257L466.102 373.771L473.372 367.709L464.796 360.195Z" fill="#CF6F64"/>
<path d="M376.006 150.997C376.006 150.997 371.472 152.57 380.566 207.516H419.292C418.639 192.04 418.627 182.493 426.156 150.718C420.737 149.613 415.243 148.897 409.718 148.577C403.861 148.159 397.981 148.159 392.123 148.577C384.57 149.23 376.006 150.997 376.006 150.997Z" fill="#407BFF"/>
<path opacity="0.5" d="M376.006 150.997C376.006 150.997 371.472 152.57 380.566 207.516H419.292C418.639 192.04 418.627 182.493 426.156 150.718C420.737 149.613 415.243 148.897 409.718 148.577C403.861 148.159 397.981 148.159 392.123 148.577C384.57 149.23 376.006 150.997 376.006 150.997Z" fill="black"/>
<path d="M397.853 152.521L401.352 159.539C401.352 159.539 416.027 155.135 414.105 148.795L409.176 148.238L397.853 152.521Z" fill="#407BFF"/>
<path opacity="0.6" d="M397.853 152.521L401.352 159.539C401.352 159.539 416.027 155.135 414.105 148.795L409.176 148.238L397.853 152.521Z" fill="#FAFAFA"/>
<path d="M397.582 151.868L392.653 159.031C392.653 159.031 382.204 154.579 389.413 148.589L392.481 148.238L397.582 151.868Z" fill="#407BFF"/>
<path opacity="0.6" d="M397.582 151.868L392.653 159.031C392.653 159.031 382.204 154.579 389.413 148.589L392.481 148.238L397.582 151.868Z" fill="#FAFAFA"/>
<path d="M413.316 100.177C417.838 95.9052 413.501 75.8312 425.404 82.4741C440.535 90.9442 450.306 79.8605 445.254 75.6497C455.875 76.3878 454.84 88.258 450.417 94.6347C439.192 110.861 416.545 95.4333 416.409 103.673C416.274 111.914 413.316 100.177 413.316 100.177Z" fill="#263238"/>
<path d="M406.786 97.2845C411.974 93.2552 429.692 96.6069 417.543 112.833L406.786 97.2845Z" fill="#407BFF"/>
<path opacity="0.3" d="M406.786 97.2845C411.974 93.2552 429.692 96.6069 417.543 112.833L406.786 97.2845Z" fill="black"/>
<path d="M409.521 104.823C424.628 107.037 425.687 131.141 402.239 134.88L409.521 104.823Z" fill="#263238"/>
<path d="M407.969 129.108C406.86 134.662 405.751 144.838 409.719 148.553C409.719 148.553 408.166 154.179 397.656 154.179C386.098 154.179 392.123 148.553 392.123 148.553C398.432 147.064 398.284 142.503 397.175 138.159L407.969 129.108Z" fill="#E58A7B"/>
<path d="M403.57 132.847L397.175 138.195C397.456 139.2 397.638 140.229 397.717 141.269C400.182 140.918 403.447 138.316 403.706 135.848C403.847 134.848 403.801 133.83 403.57 132.847Z" fill="#CF6F64"/>
<path d="M384.127 122.671C378.915 116.076 372.125 99.0632 392.444 97.4297L384.127 122.671Z" fill="#263238"/>
<path d="M407.587 114.927C408.819 124.147 409.558 128.019 405.813 133.585C400.182 141.97 388.378 141.474 384.361 132.81C380.726 125.018 379.297 111.26 387.638 105.888C389.473 104.694 391.589 103.981 393.784 103.816C395.979 103.651 398.18 104.04 400.179 104.946C402.177 105.851 403.907 107.244 405.204 108.991C406.5 110.737 407.321 112.781 407.587 114.927Z" fill="#E58A7B"/>
<path d="M380.603 207.468C380.603 207.468 373.086 279.596 373.703 308.153C374.356 337.858 385.445 405.607 385.445 405.607H398.333C398.333 405.607 396.288 339.589 397.434 310.427C398.666 278.616 408.967 207.468 408.967 207.468H380.603Z" fill="#407BFF"/>
<path opacity="0.6" d="M380.603 207.468C380.603 207.468 373.086 279.596 373.703 308.153C374.356 337.858 385.445 405.607 385.445 405.607H398.333C398.333 405.607 396.288 339.589 397.434 310.427C398.666 278.616 408.967 207.468 408.967 207.468H380.603Z" fill="#FAFAFA"/>
<path d="M399.418 406.055H384.287L383.178 401.323L400.12 400.743L399.418 406.055Z" fill="#407BFF"/>
<path opacity="0.4" d="M399.418 406.055H384.287L383.178 401.323L400.12 400.743L399.418 406.055Z" fill="#FAFAFA"/>
<path d="M397.274 225.412C387.761 244.204 395.364 278.483 398.728 291.237C400.453 272.082 403.36 248.669 405.628 231.474C404.186 221.746 401.66 216.749 397.274 225.412Z" fill="#407BFF"/>
<path opacity="0.4" d="M397.274 225.412C387.761 244.204 395.364 278.483 398.728 291.237C400.453 272.082 403.36 248.669 405.628 231.474C404.186 221.746 401.66 216.749 397.274 225.412Z" fill="#FAFAFA"/>
<path d="M390.793 207.468C390.793 207.468 399.566 282.488 406.195 306.531C414.056 335.124 462.874 373.59 462.874 373.59L472.793 365.314C472.793 365.314 437.381 323.532 431.368 308.443C418.529 276.305 429.519 228.413 419.256 207.444L390.793 207.468Z" fill="#407BFF"/>
<path opacity="0.6" d="M390.793 207.468C390.793 207.468 399.566 282.488 406.195 306.531C414.056 335.124 462.874 373.59 462.874 373.59L472.793 365.314C472.793 365.314 437.381 323.532 431.368 308.443C418.529 276.305 429.519 228.413 419.256 207.444L390.793 207.468Z" fill="#FAFAFA"/>
<path d="M474.407 364.878L462.11 375.127L457.526 372.429L471.425 359.723L474.407 364.878Z" fill="#407BFF"/>
<path opacity="0.4" d="M474.407 364.878L462.11 375.127L457.526 372.429L471.425 359.723L474.407 364.878Z" fill="#FAFAFA"/>
<path d="M394.033 120.19C394.181 120.928 393.898 121.606 393.405 121.703C392.912 121.799 392.394 121.267 392.246 120.493C392.099 119.718 392.382 119.077 392.875 118.98C393.368 118.883 393.885 119.44 394.033 120.19Z" fill="#263238"/>
<path d="M385.531 121.836C385.679 122.574 385.396 123.251 384.903 123.348C384.41 123.445 383.893 122.913 383.745 122.138C383.597 121.364 383.868 120.722 384.361 120.626C384.854 120.529 385.359 121.085 385.531 121.836Z" fill="#263238"/>
<path d="M384.57 120.662L382.648 120.492C382.648 120.492 383.855 121.703 384.57 120.662Z" fill="#263238"/>
<path d="M387.996 122.67C387.662 124.49 387.078 126.257 386.258 127.922C386.695 128.119 387.17 128.222 387.651 128.222C388.131 128.222 388.606 128.119 389.043 127.922L387.996 122.67Z" fill="#DF5753"/>
<path d="M392.259 130.306C392.2 130.306 392.144 130.283 392.102 130.242C392.06 130.201 392.037 130.146 392.037 130.088C392.037 130.03 392.06 129.975 392.102 129.934C392.144 129.893 392.2 129.87 392.259 129.87C393.202 129.708 394.093 129.33 394.86 128.767C395.626 128.204 396.246 127.47 396.67 126.627C396.681 126.6 396.698 126.576 396.719 126.555C396.74 126.534 396.765 126.518 396.792 126.507C396.82 126.496 396.849 126.49 396.879 126.49C396.909 126.49 396.938 126.495 396.966 126.506C396.993 126.517 397.018 126.534 397.039 126.554C397.06 126.575 397.077 126.6 397.089 126.627C397.1 126.653 397.106 126.682 397.106 126.712C397.106 126.741 397.1 126.77 397.089 126.797C396.643 127.712 395.979 128.509 395.153 129.12C394.328 129.731 393.364 130.137 392.345 130.306H392.259Z" fill="#263238"/>
<path d="M384.299 109.155C384.299 109.155 392.321 121.098 407.107 122.671C407.107 122.671 422.373 109.058 412.984 99.6198C397.779 84.3495 379.642 103.806 384.299 109.155Z" fill="#263238"/>
<path d="M410.803 122.053C410.783 122.942 410.583 123.818 410.215 124.63C409.847 125.443 409.318 126.175 408.659 126.785C406.885 128.418 404.889 127.123 404.445 124.909C404.051 122.913 404.445 119.67 406.724 118.859C407.216 118.697 407.742 118.658 408.253 118.747C408.764 118.835 409.244 119.048 409.649 119.366C410.055 119.683 410.373 120.096 410.575 120.565C410.776 121.035 410.855 121.546 410.803 122.053Z" fill="#E58A7B"/>
<path d="M395.98 116.996C395.867 116.997 395.758 116.958 395.672 116.887C395.259 116.505 394.761 116.224 394.217 116.066C393.674 115.908 393.1 115.879 392.542 115.979C392.485 115.996 392.425 116 392.365 115.993C392.306 115.986 392.248 115.967 392.197 115.938C392.145 115.909 392.1 115.869 392.064 115.822C392.028 115.775 392.002 115.722 391.988 115.665C391.958 115.551 391.974 115.43 392.034 115.328C392.094 115.226 392.193 115.151 392.308 115.12C393.011 114.979 393.738 115.005 394.428 115.196C395.119 115.388 395.752 115.739 396.276 116.221C396.36 116.305 396.407 116.418 396.407 116.536C396.407 116.654 396.36 116.767 396.276 116.85C396.2 116.934 396.094 116.986 395.98 116.996Z" fill="#263238"/>
<path d="M380.775 118.726C380.718 118.738 380.659 118.738 380.603 118.726C380.547 118.705 380.496 118.673 380.453 118.632C380.41 118.591 380.376 118.541 380.353 118.487C380.33 118.433 380.318 118.375 380.319 118.316C380.32 118.257 380.332 118.199 380.356 118.145C380.616 117.489 381.032 116.903 381.57 116.437C382.108 115.972 382.753 115.641 383.449 115.471C383.506 115.459 383.566 115.458 383.624 115.47C383.682 115.481 383.736 115.504 383.785 115.536C383.833 115.569 383.875 115.612 383.906 115.661C383.937 115.71 383.958 115.765 383.966 115.822C383.979 115.879 383.979 115.938 383.968 115.996C383.957 116.053 383.934 116.108 383.9 116.157C383.867 116.205 383.824 116.247 383.774 116.279C383.724 116.31 383.668 116.332 383.609 116.342C383.055 116.482 382.542 116.749 382.114 117.121C381.685 117.494 381.353 117.961 381.145 118.484C381.11 118.553 381.058 118.611 380.993 118.654C380.928 118.696 380.853 118.721 380.775 118.726Z" fill="#263238"/>
<path d="M439.746 197.377V196.3C439.746 194.848 439.537 193.456 439.389 192.053C438.643 186.618 437.465 181.25 435.865 175.996C434.318 170.792 432.475 165.678 430.345 160.677L421.264 164.307C423.1 168.978 424.837 173.902 426.427 178.742C427.191 181.163 427.918 183.583 428.546 186.003C429.174 188.423 429.778 190.843 430.209 193.263L430.468 194.872C429.618 194.594 428.743 194.291 427.856 193.928C423.198 192.065 418.442 189.645 413.748 187.321L411.025 191.23C415.202 194.793 419.706 197.968 424.48 200.716C425.762 201.446 427.092 202.092 428.46 202.652C429.227 202.979 430.018 203.25 430.826 203.463C431.307 203.597 431.797 203.698 432.292 203.765C432.95 203.848 433.617 203.848 434.276 203.765C435.363 203.671 436.402 203.286 437.282 202.652C438.377 201.853 439.149 200.701 439.463 199.397C439.65 198.739 439.745 198.06 439.746 197.377ZM433.117 195.574H433.339C433.475 195.562 433.302 195.586 433.056 195.574H433.117Z" fill="#E58A7B"/>
<path d="M426.193 150.67C430.074 151.88 434.732 164.948 434.732 164.948L419.687 175.524C419.687 175.524 414.191 164.573 415.83 159.648C417.481 154.518 421.732 149.351 426.193 150.67Z" fill="#407BFF"/>
<path opacity="0.5" d="M426.193 150.67C430.074 151.88 434.732 164.948 434.732 164.948L419.687 175.524C419.687 175.524 414.191 164.573 415.83 159.648C417.481 154.518 421.732 149.351 426.193 150.67Z" fill="black"/>
<path d="M469.552 384.625C469.356 384.62 469.163 384.571 468.989 384.483C468.814 384.395 468.661 384.27 468.542 384.117C468.448 384.021 468.382 383.901 468.352 383.771C468.322 383.641 468.328 383.506 468.37 383.379C468.715 382.229 472.066 381.298 472.399 381.201C472.442 381.188 472.489 381.188 472.533 381.201C472.577 381.214 472.616 381.239 472.645 381.274C472.667 381.31 472.678 381.352 472.678 381.395C472.678 381.437 472.667 381.479 472.645 381.516C472.054 382.617 470.871 384.48 469.676 384.625H469.552ZM472.017 381.782C470.698 382.193 468.998 382.907 468.813 383.512C468.794 383.567 468.792 383.626 468.807 383.682C468.822 383.738 468.855 383.789 468.899 383.827C468.984 383.946 469.099 384.042 469.233 384.103C469.367 384.165 469.516 384.191 469.663 384.178C470.292 384.105 471.154 383.222 472.004 381.782H472.017Z" fill="#407BFF"/>
<path d="M470.957 381.818C469.972 381.918 468.985 381.645 468.197 381.056C468.083 380.919 468.021 380.748 468.021 380.572C468.021 380.395 468.083 380.224 468.197 380.088C468.295 379.95 468.421 379.833 468.568 379.746C468.714 379.658 468.877 379.601 469.047 379.579C470.403 379.422 472.497 381.165 472.584 381.249C472.616 381.272 472.64 381.304 472.653 381.341C472.666 381.378 472.668 381.417 472.657 381.455C472.652 381.494 472.635 381.531 472.609 381.561C472.583 381.591 472.548 381.613 472.51 381.624C472.005 381.763 471.481 381.828 470.957 381.818ZM469.281 380.003H469.134C469.024 380.015 468.919 380.051 468.826 380.107C468.732 380.164 468.652 380.24 468.591 380.33C468.431 380.56 468.493 380.693 468.591 380.777C468.998 381.298 470.871 381.491 472.017 381.298C471.249 380.641 470.318 380.194 469.318 380.003H469.281Z" fill="#407BFF"/>
<path d="M383.831 418.82C383.014 418.893 382.196 418.688 381.514 418.239C381.361 418.107 381.244 417.939 381.173 417.751C381.102 417.563 381.079 417.361 381.108 417.162C381.115 417.04 381.154 416.921 381.221 416.817C381.288 416.714 381.38 416.628 381.49 416.569C382.66 415.952 386.418 417.852 386.887 418.07C386.928 418.091 386.962 418.125 386.984 418.166C387.006 418.207 387.015 418.254 387.01 418.3C387.005 418.344 386.986 418.386 386.955 418.419C386.923 418.452 386.882 418.474 386.837 418.481C385.849 418.691 384.842 418.804 383.831 418.82ZM382.13 416.884C381.986 416.875 381.841 416.904 381.711 416.969C381.667 416.989 381.63 417.022 381.604 417.062C381.577 417.103 381.563 417.15 381.564 417.198C381.54 417.329 381.551 417.464 381.596 417.589C381.642 417.715 381.72 417.826 381.822 417.912C382.401 418.421 383.966 418.517 386.086 418.167C384.851 417.522 383.513 417.088 382.13 416.884Z" fill="#407BFF"/>
<path d="M386.763 418.494H386.665C385.531 417.985 383.289 415.977 383.461 414.863C383.461 414.609 383.683 414.295 384.311 414.234C384.533 414.21 384.757 414.232 384.969 414.299C385.182 414.366 385.377 414.476 385.544 414.621C386.776 415.602 386.973 418.118 386.973 418.252C386.979 418.289 386.974 418.327 386.959 418.361C386.944 418.395 386.919 418.425 386.887 418.445C386.852 418.474 386.809 418.491 386.763 418.494ZM384.496 414.694H384.361C383.942 414.694 383.917 414.888 383.905 414.948C383.806 415.577 385.322 417.175 386.48 417.864C386.394 416.796 385.962 415.783 385.248 414.972C385.043 414.805 384.787 414.707 384.521 414.694H384.496Z" fill="#407BFF"/>
<path d="M415.103 188.398L411.9 178.779L406.798 186.874C406.798 186.874 409.805 192.113 413.773 192.028L415.103 188.398Z" fill="#E58A7B"/>
<path d="M405.209 174.398L401.315 181.404L406.761 186.873L411.862 178.779L405.209 174.398Z" fill="#E58A7B"/>
<path d="M393.097 119.016L391.187 118.847C391.187 118.847 392.394 120.057 393.097 119.016Z" fill="#263238"/>
<path d="M419.872 205.229L420.87 208.642C421.005 208.896 420.685 209.174 420.229 209.174H380.381C380.023 209.174 379.74 209.005 379.715 208.787L379.37 205.447C379.37 205.205 379.641 205.012 380.023 205.012H419.243C419.358 204.994 419.476 205.005 419.585 205.043C419.695 205.081 419.793 205.145 419.872 205.229Z" fill="#263238"/>
<path d="M414.61 209.537H415.657C415.867 209.537 416.027 209.428 416.015 209.307L415.522 204.878C415.522 204.745 415.325 204.649 415.115 204.649H414.068C413.858 204.649 413.698 204.745 413.711 204.878L414.203 209.307C414.216 209.428 414.401 209.537 414.61 209.537Z" fill="#407BFF"/>
<path opacity="0.6" d="M414.61 209.537H415.657C415.867 209.537 416.027 209.428 416.015 209.307L415.522 204.878C415.522 204.745 415.325 204.649 415.115 204.649H414.068C413.858 204.649 413.698 204.745 413.711 204.878L414.203 209.307C414.216 209.428 414.401 209.537 414.61 209.537Z" fill="#FAFAFA"/>
<path d="M383.326 209.537H384.373C384.582 209.537 384.743 209.428 384.73 209.307L384.237 204.878C384.237 204.745 384.04 204.649 383.831 204.649H382.784C382.574 204.649 382.414 204.745 382.426 204.878L382.919 209.307C382.931 209.428 383.067 209.537 383.326 209.537Z" fill="#407BFF"/>
<path opacity="0.6" d="M383.326 209.537H384.373C384.582 209.537 384.743 209.428 384.73 209.307L384.237 204.878C384.237 204.745 384.04 204.649 383.831 204.649H382.784C382.574 204.649 382.414 204.745 382.426 204.878L382.919 209.307C382.931 209.428 383.067 209.537 383.326 209.537Z" fill="#FAFAFA"/>
<path d="M398.962 209.537H400.022C400.231 209.537 400.391 209.428 400.367 209.307L399.874 204.878C399.874 204.745 399.677 204.649 399.467 204.649H398.42C398.21 204.649 398.05 204.745 398.062 204.878L398.555 209.307C398.589 209.383 398.647 209.446 398.72 209.488C398.793 209.529 398.878 209.546 398.962 209.537Z" fill="#407BFF"/>
<path opacity="0.6" d="M398.962 209.537H400.022C400.231 209.537 400.391 209.428 400.367 209.307L399.874 204.878C399.874 204.745 399.677 204.649 399.467 204.649H398.42C398.21 204.649 398.05 204.745 398.062 204.878L398.555 209.307C398.589 209.383 398.647 209.446 398.72 209.488C398.793 209.529 398.878 209.546 398.962 209.537Z" fill="#FAFAFA"/>
<path d="M275.376 429.589H356.883C358.785 429.611 360.669 429.242 362.417 428.506C364.164 427.771 365.736 426.684 367.031 425.317C368.326 423.95 369.315 422.332 369.936 420.567C370.556 418.802 370.794 416.929 370.634 415.069L351.142 141.317C350.803 137.402 348.998 133.75 346.075 131.068C343.153 128.386 339.32 126.864 335.321 126.797H253.813C251.912 126.775 250.027 127.144 248.28 127.879C246.532 128.615 244.96 129.701 243.666 131.069C242.371 132.436 241.381 134.054 240.761 135.819C240.14 137.583 239.902 139.456 240.062 141.317L259.555 415.081C259.896 418.993 261.702 422.642 264.625 425.322C267.547 428.002 271.378 429.522 275.376 429.589Z" fill="#407BFF"/>
<path opacity="0.2" d="M275.376 429.589H356.883C358.785 429.611 360.669 429.242 362.417 428.506C364.164 427.771 365.736 426.684 367.031 425.317C368.326 423.95 369.315 422.332 369.936 420.567C370.556 418.802 370.794 416.929 370.634 415.069L351.142 141.317C350.803 137.402 348.998 133.75 346.075 131.068C343.153 128.386 339.32 126.864 335.321 126.797H253.813C251.912 126.775 250.027 127.144 248.28 127.879C246.532 128.615 244.96 129.701 243.666 131.069C242.371 132.436 241.381 134.054 240.761 135.819C240.14 137.583 239.902 139.456 240.062 141.317L259.555 415.081C259.896 418.993 261.702 422.642 264.625 425.322C267.547 428.002 271.378 429.522 275.376 429.589Z" fill="black"/>
<path d="M232.32 225.73L231.091 225.814L232.449 244.886L233.678 244.801L232.32 225.73Z" fill="#407BFF"/>
<path opacity="0.5" d="M232.32 225.73L231.091 225.814L232.449 244.886L233.678 244.801L232.32 225.73Z" fill="black"/>
<path d="M264.705 429.589H346.201C348.102 429.611 349.987 429.242 351.734 428.506C353.482 427.771 355.053 426.684 356.348 425.317C357.643 423.95 358.632 422.332 359.253 420.567C359.873 418.802 360.111 416.929 359.952 415.069L340.459 141.317C340.121 137.402 338.315 133.75 335.393 131.068C332.47 128.386 328.638 126.864 324.638 126.797H243.143C241.241 126.775 239.357 127.144 237.609 127.879C235.862 128.615 234.29 129.701 232.995 131.069C231.7 132.436 230.711 134.054 230.09 135.819C229.47 137.583 229.232 139.456 229.392 141.317L248.884 415.069C249.223 418.983 251.028 422.635 253.951 425.318C256.873 428 260.706 429.522 264.705 429.589Z" fill="#407BFF"/>
<path opacity="0.5" d="M264.705 429.589H346.201C348.102 429.611 349.987 429.242 351.734 428.506C353.482 427.771 355.053 426.684 356.348 425.317C357.643 423.95 358.632 422.332 359.253 420.567C359.873 418.802 360.111 416.929 359.952 415.069L340.459 141.317C340.121 137.402 338.315 133.75 335.393 131.068C332.47 128.386 328.638 126.864 324.638 126.797H243.143C241.241 126.775 239.357 127.144 237.609 127.879C235.862 128.615 234.29 129.701 232.995 131.069C231.7 132.436 230.711 134.054 230.09 135.819C229.47 137.583 229.232 139.456 229.392 141.317L248.884 415.069C249.223 418.983 251.028 422.635 253.951 425.318C256.873 428 260.706 429.522 264.705 429.589Z" fill="black"/>
<path d="M279.836 213.99H294.918C295.273 214.004 295.627 213.943 295.955 213.81C296.284 213.678 296.58 213.477 296.822 213.222C297.064 212.967 297.247 212.663 297.359 212.332C297.47 212.001 297.508 211.65 297.469 211.304L293.858 160.604C293.797 159.879 293.463 159.201 292.921 158.705C292.378 158.208 291.667 157.928 290.926 157.918H275.869C275.515 157.906 275.162 157.968 274.835 158.101C274.508 158.235 274.214 158.435 273.973 158.69C273.732 158.945 273.55 159.248 273.439 159.579C273.328 159.909 273.291 160.259 273.33 160.604L276.941 211.304C277.001 212.023 277.33 212.695 277.865 213.191C278.399 213.687 279.101 213.971 279.836 213.99Z" fill="#407BFF"/>
<path opacity="0.2" d="M279.836 213.99H294.918C295.273 214.004 295.627 213.943 295.955 213.81C296.284 213.678 296.58 213.477 296.822 213.222C297.064 212.967 297.247 212.663 297.359 212.332C297.47 212.001 297.508 211.65 297.469 211.304L293.858 160.604C293.797 159.879 293.463 159.201 292.921 158.705C292.378 158.208 291.667 157.928 290.926 157.918H275.869C275.515 157.906 275.162 157.968 274.835 158.101C274.508 158.235 274.214 158.435 273.973 158.69C273.732 158.945 273.55 159.248 273.439 159.579C273.328 159.909 273.291 160.259 273.33 160.604L276.941 211.304C277.001 212.023 277.33 212.695 277.865 213.191C278.399 213.687 279.101 213.971 279.836 213.99Z" fill="black"/>
<path d="M187.461 429.589H105.953C104.052 429.611 102.167 429.242 100.42 428.506C98.6725 427.771 97.1009 426.684 95.8061 425.317C94.5112 423.95 93.5218 422.332 92.9012 420.567C92.2807 418.802 92.0427 416.929 92.2025 415.069L111.695 141.317C112.036 137.403 113.842 133.753 116.764 131.071C119.686 128.389 123.517 126.866 127.516 126.797H209.024C210.925 126.775 212.81 127.144 214.557 127.879C216.305 128.615 217.876 129.701 219.171 131.068C220.466 132.436 221.455 134.054 222.076 135.819C222.697 137.583 222.935 139.456 222.775 141.317L203.282 415.069C202.944 418.983 201.139 422.635 198.216 425.318C195.293 428 191.461 429.522 187.461 429.589Z" fill="#407BFF"/>
<path opacity="0.5" d="M187.461 429.589H105.953C104.052 429.611 102.167 429.242 100.42 428.506C98.6725 427.771 97.1009 426.684 95.8061 425.317C94.5112 423.95 93.5218 422.332 92.9012 420.567C92.2807 418.802 92.0427 416.929 92.2025 415.069L111.695 141.317C112.036 137.403 113.842 133.753 116.764 131.071C119.686 128.389 123.517 126.866 127.516 126.797H209.024C210.925 126.775 212.81 127.144 214.557 127.879C216.305 128.615 217.876 129.701 219.171 131.068C220.466 132.436 221.455 134.054 222.076 135.819C222.697 137.583 222.935 139.456 222.775 141.317L203.282 415.069C202.944 418.983 201.139 422.635 198.216 425.318C195.293 428 191.461 429.522 187.461 429.589Z" fill="black"/>
<path d="M153.182 122.549H148.586V123.76H153.182V122.549Z" fill="#407BFF"/>
<path opacity="0.3" d="M153.182 122.549H148.586V123.76H153.182V122.549Z" fill="black"/>
<path d="M140.343 122.549H125.89V123.76H140.343V122.549Z" fill="#407BFF"/>
<path opacity="0.3" d="M140.343 122.549H125.89V123.76H140.343V122.549Z" fill="black"/>
<path d="M176.778 429.589H95.2831C93.3819 429.611 91.4971 429.242 89.7496 428.506C88.0021 427.771 86.4305 426.684 85.1356 425.317C83.8408 423.95 82.8514 422.332 82.2308 420.567C81.6103 418.802 81.3723 416.929 81.5321 415.069L101.025 141.317C101.363 137.402 103.168 133.75 106.091 131.068C109.014 128.385 112.846 126.863 116.846 126.797H198.341C200.242 126.775 202.127 127.144 203.875 127.879C205.622 128.615 207.194 129.701 208.489 131.068C209.783 132.436 210.773 134.054 211.393 135.819C212.014 137.583 212.252 139.456 212.092 141.317L192.599 415.069C192.261 418.983 190.456 422.635 187.533 425.318C184.61 428 180.778 429.522 176.778 429.589Z" fill="#407BFF"/>
<path opacity="0.3" d="M176.778 429.589H95.2831C93.3819 429.611 91.4971 429.242 89.7496 428.506C88.0021 427.771 86.4305 426.684 85.1356 425.317C83.8408 423.95 82.8514 422.332 82.2308 420.567C81.6103 418.802 81.3723 416.929 81.5321 415.069L101.025 141.317C101.363 137.402 103.168 133.75 106.091 131.068C109.014 128.385 112.846 126.863 116.846 126.797H198.341C200.242 126.775 202.127 127.144 203.875 127.879C205.622 128.615 207.194 129.701 208.489 131.068C209.783 132.436 210.773 134.054 211.393 135.819C212.014 137.583 212.252 139.456 212.092 141.317L192.599 415.069C192.261 418.983 190.456 422.635 187.533 425.318C184.61 428 180.778 429.522 176.778 429.589Z" fill="black"/>
<path d="M189.001 413.835H81.6923C81.435 413.834 81.1807 413.781 80.9451 413.68C80.7094 413.579 80.4973 413.431 80.3218 413.246C80.1464 413.062 80.0113 412.844 79.9249 412.606C79.8385 412.368 79.8026 412.115 79.8194 411.863L98.807 145.189C98.8413 144.721 99.055 144.284 99.4049 143.965C99.7548 143.646 100.215 143.469 100.692 143.471H207.989C208.247 143.47 208.503 143.522 208.74 143.622C208.977 143.723 209.191 143.87 209.368 144.055C209.544 144.24 209.68 144.458 209.768 144.697C209.855 144.936 209.891 145.19 209.874 145.443L190.85 412.117C190.819 412.579 190.611 413.013 190.268 413.332C189.926 413.65 189.473 413.83 189.001 413.835Z" fill="#407BFF"/>
<path opacity="0.9" d="M189.001 413.835H81.6923C81.435 413.834 81.1807 413.781 80.9451 413.68C80.7094 413.579 80.4973 413.431 80.3218 413.246C80.1464 413.062 80.0113 412.844 79.9249 412.606C79.8385 412.368 79.8026 412.115 79.8194 411.863L98.807 145.189C98.8413 144.721 99.055 144.284 99.4049 143.965C99.7548 143.646 100.215 143.469 100.692 143.471H207.989C208.247 143.47 208.503 143.522 208.74 143.622C208.977 143.723 209.191 143.87 209.368 144.055C209.544 144.24 209.68 144.458 209.768 144.697C209.855 144.936 209.891 145.19 209.874 145.443L190.85 412.117C190.819 412.579 190.611 413.013 190.268 413.332C189.926 413.65 189.473 413.83 189.001 413.835Z" fill="#FAFAFA"/>
<path d="M186.389 170.768H116.735C114.842 170.8 113.028 171.521 111.644 172.79C110.26 174.06 109.405 175.788 109.243 177.641L101.986 279.524C101.91 280.405 102.023 281.292 102.318 282.128C102.612 282.964 103.081 283.731 103.695 284.378C104.309 285.025 105.054 285.539 105.882 285.887C106.71 286.235 107.603 286.408 108.504 286.397H113.334L110.87 293.862C116.569 293.358 121.838 290.677 125.545 286.397H178.158C180.052 286.364 181.866 285.644 183.249 284.374C184.633 283.105 185.488 281.377 185.65 279.524L192.907 177.641C192.981 176.76 192.867 175.874 192.572 175.038C192.277 174.203 191.807 173.438 191.194 172.791C190.58 172.144 189.836 171.63 189.009 171.282C188.181 170.933 187.289 170.758 186.389 170.768Z" fill="#407BFF"/>
<path opacity="0.6" d="M186.389 170.768H116.735C114.842 170.8 113.028 171.521 111.644 172.79C110.26 174.06 109.405 175.788 109.243 177.641L101.986 279.524C101.91 280.405 102.023 281.292 102.318 282.128C102.612 282.964 103.081 283.731 103.695 284.378C104.309 285.025 105.054 285.539 105.882 285.887C106.71 286.235 107.603 286.408 108.504 286.397H113.334L110.87 293.862C116.569 293.358 121.838 290.677 125.545 286.397H178.158C180.052 286.364 181.866 285.644 183.249 284.374C184.633 283.105 185.488 281.377 185.65 279.524L192.907 177.641C192.981 176.76 192.867 175.874 192.572 175.038C192.277 174.203 191.807 173.438 191.194 172.791C190.58 172.144 189.836 171.63 189.009 171.282C188.181 170.933 187.289 170.758 186.389 170.768Z" fill="#FAFAFA"/>
<path d="M107.062 306.906H176.717C177.617 306.895 178.51 307.068 179.339 307.416C180.167 307.764 180.912 308.278 181.526 308.925C182.14 309.572 182.609 310.339 182.903 311.175C183.198 312.011 183.31 312.898 183.235 313.779L180.117 357.545C179.956 359.398 179.101 361.126 177.717 362.396C176.333 363.665 174.519 364.386 172.626 364.418H167.783L169.139 371.884C166.467 371.665 163.874 370.885 161.536 369.597C159.198 368.309 157.168 366.543 155.585 364.418H102.947C102.046 364.43 101.153 364.256 100.325 363.908C99.4967 363.561 98.7517 363.047 98.1378 362.399C97.5239 361.752 97.0547 360.986 96.7604 360.15C96.4661 359.314 96.3532 358.427 96.4289 357.545L99.5463 313.779C99.7081 311.922 100.567 310.191 101.956 308.92C103.345 307.65 105.165 306.933 107.062 306.906Z" fill="#407BFF"/>
<path opacity="0.6" d="M107.062 306.906H176.717C177.617 306.895 178.51 307.068 179.339 307.416C180.167 307.764 180.912 308.278 181.526 308.925C182.14 309.572 182.609 310.339 182.903 311.175C183.198 312.011 183.31 312.898 183.235 313.779L180.117 357.545C179.956 359.398 179.101 361.126 177.717 362.396C176.333 363.665 174.519 364.386 172.626 364.418H167.783L169.139 371.884C166.467 371.665 163.874 370.885 161.536 369.597C159.198 368.309 157.168 366.543 155.585 364.418H102.947C102.046 364.43 101.153 364.256 100.325 363.908C99.4967 363.561 98.7517 363.047 98.1378 362.399C97.5239 361.752 97.0547 360.986 96.7604 360.15C96.4661 359.314 96.3532 358.427 96.4289 357.545L99.5463 313.779C99.7081 311.922 100.567 310.191 101.956 308.92C103.345 307.65 105.165 306.933 107.062 306.906Z" fill="#FAFAFA"/>
<path d="M169.964 134.456C169.916 135.069 169.636 135.643 169.181 136.066C168.726 136.488 168.127 136.73 167.5 136.743C167.2 136.747 166.903 136.69 166.627 136.575C166.351 136.459 166.103 136.288 165.898 136.073C165.694 135.857 165.538 135.602 165.44 135.323C165.343 135.045 165.306 134.749 165.331 134.456C165.386 133.844 165.666 133.274 166.121 132.852C166.575 132.431 167.171 132.188 167.796 132.169C168.096 132.165 168.393 132.222 168.669 132.337C168.945 132.453 169.193 132.624 169.397 132.839C169.602 133.055 169.758 133.31 169.856 133.589C169.953 133.867 169.99 134.163 169.964 134.456Z" fill="#407BFF"/>
<path opacity="0.5" d="M169.964 134.456C169.916 135.069 169.636 135.643 169.181 136.066C168.726 136.488 168.127 136.73 167.5 136.743C167.2 136.747 166.903 136.69 166.627 136.575C166.351 136.459 166.103 136.288 165.898 136.073C165.694 135.857 165.538 135.602 165.44 135.323C165.343 135.045 165.306 134.749 165.331 134.456C165.386 133.844 165.666 133.274 166.121 132.852C166.575 132.431 167.171 132.188 167.796 132.169C168.096 132.165 168.393 132.222 168.669 132.337C168.945 132.453 169.193 132.624 169.397 132.839C169.602 133.055 169.758 133.31 169.856 133.589C169.953 133.867 169.99 134.163 169.964 134.456Z" fill="black"/>
<path d="M157.963 136.743H141.711C141.412 136.746 141.115 136.687 140.84 136.571C140.565 136.455 140.318 136.284 140.114 136.069C139.91 135.853 139.753 135.599 139.655 135.321C139.557 135.044 139.518 134.749 139.542 134.456C139.594 133.843 139.874 133.271 140.329 132.849C140.783 132.427 141.381 132.185 142.007 132.169H158.259C158.558 132.166 158.855 132.225 159.13 132.341C159.405 132.457 159.652 132.628 159.856 132.843C160.06 133.059 160.216 133.313 160.315 133.591C160.413 133.868 160.451 134.163 160.427 134.456C160.376 135.068 160.096 135.641 159.641 136.063C159.186 136.485 158.589 136.727 157.963 136.743Z" fill="#407BFF"/>
<path opacity="0.5" d="M157.963 136.743H141.711C141.412 136.746 141.115 136.687 140.84 136.571C140.565 136.455 140.318 136.284 140.114 136.069C139.91 135.853 139.753 135.599 139.655 135.321C139.557 135.044 139.518 134.749 139.542 134.456C139.594 133.843 139.874 133.271 140.329 132.849C140.783 132.427 141.381 132.185 142.007 132.169H158.259C158.558 132.166 158.855 132.225 159.13 132.341C159.405 132.457 159.652 132.628 159.856 132.843C160.06 133.059 160.216 133.313 160.315 133.591C160.413 133.868 160.451 134.163 160.427 134.456C160.376 135.068 160.096 135.641 159.641 136.063C159.186 136.485 158.589 136.727 157.963 136.743Z" fill="black"/>
<path d="M71.1942 189.318L73.1287 193.032C73.8063 194.242 74.4964 195.561 75.211 196.808C76.6403 199.312 78.0943 201.793 79.6222 204.201C82.5384 208.943 85.8784 213.422 89.6027 217.584C90.5268 218.491 91.5248 219.58 92.1656 220.076C93.0609 220.786 94.0174 221.417 95.0242 221.964C97.4236 223.207 99.9205 224.259 102.491 225.11C108.03 226.916 113.67 228.406 119.384 229.575L118.99 236.242C112.573 236.611 106.134 236.242 99.805 235.141C96.4329 234.567 93.1298 233.655 89.9477 232.418C88.177 231.724 86.4841 230.852 84.8958 229.817C84.0737 229.279 83.2914 228.684 82.5547 228.038L80.6079 226.356C75.9062 221.876 71.7317 216.892 68.163 211.497C66.3764 208.871 64.6883 206.209 63.1481 203.475C62.3719 202.108 61.6079 200.728 60.881 199.337C60.154 197.945 59.464 196.59 58.737 195.017L71.1942 189.318Z" fill="#E58A7B"/>
<path d="M116.92 229.575L122.403 225.775L125.298 236.762C125.298 236.762 120.468 238.432 116.833 236.024L116.92 229.575Z" fill="#E58A7B"/>
<path d="M129.968 223.282L131.915 232.479L125.286 236.762L122.391 225.775L129.968 223.282Z" fill="#E58A7B"/>
<path d="M164.802 213.542L163.311 213.276C161.753 213.011 160.154 213.107 158.641 213.554L154.341 214.837C156.535 210.382 157.358 205.394 156.706 200.486C156.189 196.784 153.355 197.631 153.355 197.631C153.355 197.631 149.202 213.022 140.577 218.927L137.867 220.778L141.736 247.894L144.927 247.604C146.159 247.604 153.17 247.604 157.692 247.604C159.021 247.548 160.32 247.199 161.493 246.583C162.666 245.967 163.683 245.1 164.469 244.047C166.773 241.052 168.093 237.439 168.252 233.689L169.065 221.069C169.262 217.342 167.438 213.99 164.802 213.542Z" fill="#407BFF"/>
<path opacity="0.9" d="M164.802 213.542L163.311 213.276C161.753 213.011 160.154 213.107 158.641 213.554L154.341 214.837C156.535 210.382 157.358 205.394 156.706 200.486C156.189 196.784 153.355 197.631 153.355 197.631C153.355 197.631 149.202 213.022 140.577 218.927L137.867 220.778L141.736 247.894L144.927 247.604C146.159 247.604 153.17 247.604 157.692 247.604C159.021 247.548 160.32 247.199 161.493 246.583C162.666 245.967 163.683 245.1 164.469 244.047C166.773 241.052 168.093 237.439 168.252 233.689L169.065 221.069C169.262 217.342 167.438 213.99 164.802 213.542Z" fill="#FAFAFA"/>
<path d="M129.759 254.186L141.908 251.585C142.857 251.391 143.522 250.109 143.374 248.741L140.208 217.68C140.06 216.313 139.173 215.369 138.224 215.563L126.075 218.164C125.126 218.358 124.461 219.641 124.609 221.008L127.775 252.069C127.923 253.436 128.81 254.38 129.759 254.186Z" fill="#407BFF"/>
<path d="M106.348 151.795C106.2 152.497 106.459 153.139 106.927 153.235C107.395 153.332 107.9 152.848 108.048 152.146C108.196 151.445 107.937 150.791 107.469 150.694C107.001 150.598 106.496 151.094 106.348 151.795Z" fill="#263238"/>
<path d="M106.397 153.126C106.794 155.446 107.511 157.701 108.529 159.83C107.97 160.074 107.364 160.194 106.752 160.182C106.141 160.169 105.54 160.024 104.992 159.757L106.397 153.126Z" fill="#DF5753"/>
<path d="M108.295 147.5C108.211 147.498 108.13 147.473 108.061 147.427C107.588 147.176 107.061 147.038 106.523 147.025C105.985 147.013 105.453 147.126 104.968 147.354C104.865 147.4 104.748 147.404 104.642 147.365C104.536 147.327 104.449 147.249 104.401 147.149C104.377 147.098 104.363 147.043 104.361 146.987C104.359 146.931 104.369 146.876 104.39 146.824C104.411 146.771 104.442 146.724 104.482 146.684C104.522 146.645 104.57 146.613 104.623 146.592C105.237 146.305 105.913 146.167 106.592 146.19C107.272 146.213 107.936 146.397 108.529 146.725C108.577 146.755 108.618 146.793 108.65 146.839C108.682 146.884 108.705 146.936 108.716 146.99C108.728 147.044 108.728 147.1 108.717 147.154C108.706 147.209 108.684 147.26 108.652 147.306C108.614 147.366 108.562 147.415 108.499 147.448C108.436 147.482 108.366 147.5 108.295 147.5Z" fill="#263238"/>
<path d="M80.99 154.046C82.2221 160.544 83.5775 172.462 78.9446 176.794C78.9446 176.794 80.7559 183.401 93.0652 183.401C106.619 183.401 99.5217 176.794 99.5217 176.794C92.1287 175.064 92.3382 169.691 93.6196 164.694L80.99 154.046Z" fill="#E58A7B"/>
<path d="M77.0717 178.658C76.1845 176.528 76.3324 172.608 76.9854 172.547C79.5483 172.378 93.2253 172.341 97.7474 174.047C98.3454 174.233 98.9 174.533 99.3789 174.93C99.8578 175.328 100.251 175.815 100.537 176.363C100.822 176.912 100.994 177.51 101.042 178.124C101.09 178.738 101.013 179.356 100.815 179.94L77.0717 178.658Z" fill="#407BFF"/>
<path d="M46.8467 422.039C46.0513 422.034 45.2585 421.949 44.481 421.785C44.441 421.778 44.4042 421.759 44.3756 421.731C44.3469 421.703 44.3278 421.666 44.3208 421.627C44.3153 421.587 44.3203 421.546 44.3354 421.507C44.3504 421.469 44.3751 421.436 44.407 421.409C44.5179 421.337 47.0192 419.667 48.3376 419.957C48.4801 419.988 48.6142 420.048 48.7311 420.134C48.848 420.219 48.9449 420.328 49.0153 420.454C49.1226 420.6 49.1803 420.776 49.1803 420.956C49.1803 421.136 49.1226 421.312 49.0153 421.458C48.7115 421.692 48.3632 421.864 47.9907 421.963C47.6183 422.063 47.2294 422.089 46.8467 422.039ZM45.0847 421.482C46.4401 421.7 48.2883 421.7 48.6826 421.192C48.6826 421.192 48.8305 420.998 48.6826 420.659C48.6427 420.585 48.5867 420.521 48.5185 420.471C48.4504 420.421 48.3718 420.386 48.2883 420.369C47.1288 420.425 46.013 420.822 45.0847 421.506V421.482Z" fill="#407BFF"/>
<path d="M44.5303 421.821H44.4194C44.3852 421.802 44.3575 421.773 44.34 421.739C44.3224 421.704 44.3157 421.665 44.3208 421.627C44.3208 421.518 44.5426 418.953 45.553 418.106C45.6809 418.003 45.8287 417.926 45.9874 417.881C46.1462 417.835 46.3127 417.821 46.4771 417.84C46.6379 417.843 46.7929 417.899 46.9162 418C47.0396 418.102 47.1238 418.242 47.1548 418.397C47.3396 419.389 45.5283 421.325 44.6042 421.833L44.5303 421.821ZM46.3539 418.191C46.1767 418.193 46.0062 418.257 45.8733 418.372C45.233 419.17 44.8587 420.141 44.8013 421.155C45.7255 420.466 46.8837 419.001 46.7728 418.409C46.7728 418.409 46.7728 418.227 46.4524 418.191H46.3539Z" fill="#407BFF"/>
<path d="M34.0815 421.603H43.1379L51.4797 401.021H42.4356L34.0815 421.603Z" fill="#E58A7B"/>
<path d="M43.8526 420.575H33.6872C33.5058 420.576 33.3302 420.638 33.1892 420.75C33.0481 420.862 32.95 421.018 32.911 421.192L31.1243 429.093C31.0835 429.285 31.0874 429.484 31.1358 429.675C31.1841 429.866 31.2756 430.043 31.4035 430.195C31.5314 430.346 31.6924 430.467 31.8744 430.548C32.0565 430.63 32.255 430.67 32.4551 430.666C36.0037 430.606 37.7287 430.4 42.2015 430.4C44.9492 430.4 50.6171 430.69 54.4245 430.69C58.2319 430.69 58.7124 427.06 57.1599 426.661C50.1859 425.161 47.5614 423.092 45.3312 421.131C44.9261 420.771 44.3988 420.573 43.8526 420.575Z" fill="#263238"/>
<path d="M117.548 185.446C120.247 190.286 122.908 195.247 125.533 200.16L133.394 214.91L135.365 218.54C135.782 219.419 136.277 220.262 136.844 221.056C138.22 222.686 139.891 224.052 141.773 225.086C146.326 227.637 151.163 229.667 156.189 231.136L155.425 237.767C153.879 237.799 152.333 237.75 150.792 237.621C149.26 237.526 147.734 237.352 146.221 237.101C143.088 236.627 140.018 235.815 137.066 234.681C133.704 233.441 130.628 231.553 128.022 229.127C126.724 227.809 125.587 226.347 124.633 224.771L122.317 221.141C119.286 216.301 116.365 211.437 113.556 206.548C110.759 201.624 108.048 196.687 105.448 191.641L117.548 185.446Z" fill="#E58A7B"/>
<path d="M55.977 184.163C52.2805 191.919 64.097 216.41 64.097 216.41L84.2798 207.214C82.0772 200.265 79.3337 193.494 76.0736 186.958C70.7999 176.685 59.7228 176.238 55.977 184.163Z" fill="#407BFF"/>
<path opacity="0.8" d="M55.977 184.163C52.2805 191.919 64.097 216.41 64.097 216.41L84.2798 207.214C82.0772 200.265 79.3337 193.494 76.0736 186.958C70.7999 176.685 59.7228 176.238 55.977 184.163Z" fill="#FAFAFA"/>
<path d="M66.8077 185.748L62.2487 212.308C63.333 214.813 64.097 216.41 64.097 216.41L84.2798 207.214C84.2798 207.214 75.1618 191.738 66.8077 185.748Z" fill="#407BFF"/>
<path opacity="0.7" d="M66.8077 185.748L62.2487 212.308C63.333 214.813 64.097 216.41 64.097 216.41L84.2798 207.214C84.2798 207.214 75.1618 191.738 66.8077 185.748Z" fill="#FAFAFA"/>
<path d="M113.445 179.263C113.445 179.263 123.081 189.959 113.987 256.098H65.5756C65.2305 248.838 69.9004 213.203 62.7416 178.803C68.0928 177.791 73.5051 177.12 78.9445 176.794C85.7979 176.407 92.6683 176.407 99.5216 176.794C104.22 177.266 108.875 178.091 113.445 179.263Z" fill="#407BFF"/>
<path opacity="0.8" d="M113.445 179.263C113.445 179.263 123.081 189.959 113.987 256.098H65.5756C65.2305 248.838 69.9004 213.203 62.7416 178.803C68.0928 177.791 73.5051 177.12 78.9445 176.794C85.7979 176.407 92.6683 176.407 99.5216 176.794C104.22 177.266 108.875 178.091 113.445 179.263Z" fill="#FAFAFA"/>
<path d="M117.351 195.005L109.872 213.155L117.351 223.839C118.09 214.242 118.09 204.603 117.351 195.005Z" fill="#407BFF"/>
<path opacity="0.7" d="M117.351 195.005L109.872 213.155L117.351 223.839C118.09 214.242 118.09 204.603 117.351 195.005Z" fill="#FAFAFA"/>
<path d="M101.666 185.131C98.6838 193.117 110.66 217.342 110.66 217.342L132.346 206.609C129.569 199.348 126.008 192.399 121.725 185.881C115.232 176.564 104.943 176.407 101.666 185.131Z" fill="#407BFF"/>
<path opacity="0.8" d="M101.666 185.131C98.6838 193.117 110.66 217.342 110.66 217.342L132.346 206.609C129.569 199.348 126.008 192.399 121.725 185.881C115.232 176.564 104.943 176.407 101.666 185.131Z" fill="#FAFAFA"/>
<path d="M154.39 231.45L163.262 227.965L165.726 238.468C165.726 238.468 158.678 240.973 153.552 237.331L154.39 231.45Z" fill="#E58A7B"/>
<path d="M173.045 228.074L171.677 237.464L165.713 238.468L163.261 227.965L173.045 228.074Z" fill="#E58A7B"/>
<path d="M42.4233 401.033H51.4797L45.479 415.819L37.1003 414.149L42.4233 401.033Z" fill="#CF6F64"/>
<path d="M82.8259 145.431C81.5937 154.155 80.3615 159.2 83.8239 164.537C89.0852 172.559 100.754 170.829 104.672 162.649C108.208 155.292 109.724 142.248 101.863 137.057C100.129 135.922 98.1308 135.237 96.0543 135.066C93.9779 134.895 91.8912 135.245 89.9895 136.081C88.0879 136.917 86.4332 138.214 85.1804 139.849C83.9276 141.484 83.1175 143.404 82.8259 145.431Z" fill="#E58A7B"/>
<path d="M116.981 130.766C109.317 123.808 115.38 122.041 115.38 122.041C115.38 122.041 106.976 118.629 110.303 125.938C114.948 136.126 101.937 132.992 95.7019 125.938C91.8575 121.582 81.7415 126.046 82.2343 130.294C82.7272 134.541 66.8323 131.25 74.0281 140.518C74.1637 150.198 77.9957 159.612 83.0845 162.165C91.8082 166.533 98.351 154.312 100.791 144.523C113.95 150.731 124.916 137.965 116.981 130.766Z" fill="#263238"/>
<path d="M94.1372 150.355C94.1867 152.557 94.9701 154.683 96.3674 156.405C98.228 158.632 100.347 157.41 100.84 154.832C101.284 152.509 100.84 148.553 98.4991 147.258C96.158 145.963 94.1249 147.718 94.1372 150.355Z" fill="#E58A7B"/>
<path d="M74.1144 131.455C78.0688 131.308 81.9475 132.547 85.056 134.952C85.056 134.952 82.8258 125.587 74.1144 131.455Z" fill="#263238"/>
<path d="M92.7817 256.098C92.7817 256.098 94.593 292.108 101.284 323.859C103.415 333.914 102.023 344.683 96.0223 353.093C78.39 377.789 50.4323 410.677 50.4323 410.677L35.7819 409.068C35.7819 409.068 59.501 365.882 71.6501 344.429C74.4101 339.589 76.8498 335.16 74.7675 329.909C54.6463 279.754 65.5263 256.098 65.5263 256.098H92.7817Z" fill="#407BFF"/>
<path opacity="0.3" d="M92.7817 256.098C92.7817 256.098 94.593 292.108 101.284 323.859C103.415 333.914 102.023 344.683 96.0223 353.093C78.39 377.789 50.4323 410.677 50.4323 410.677L35.7819 409.068C35.7819 409.068 59.501 365.882 71.6501 344.429C74.4101 339.589 76.8498 335.16 74.7675 329.909C54.6463 279.754 65.5263 256.098 65.5263 256.098H92.7817Z" fill="black"/>
<path d="M95.5048 287.22L81.4828 270.788C80.9529 278.157 85.4873 305.721 101.037 322.661C98.5605 310.718 96.7739 298.122 95.5048 287.22Z" fill="#407BFF"/>
<path opacity="0.4" d="M95.5048 287.22L81.4828 270.788C80.9529 278.157 85.4873 305.721 101.037 322.661C98.5605 310.718 96.7739 298.122 95.5048 287.22Z" fill="black"/>
<path d="M54.5601 408.487L51.6892 414.319L34.0323 409.866L35.437 404.457L54.5601 408.487Z" fill="#407BFF"/>
<path opacity="0.1" d="M54.5601 408.487L51.6892 414.319L34.0323 409.866L35.437 404.457L54.5601 408.487Z" fill="black"/>
<path d="M107.173 421.603H116.217L118.867 401.021H109.823L107.173 421.603Z" fill="#E58A7B"/>
<path d="M120.185 422.039C119.251 422.038 118.319 421.953 117.4 421.785C117.357 421.778 117.317 421.757 117.286 421.727C117.255 421.697 117.235 421.658 117.228 421.615C117.22 421.572 117.227 421.528 117.247 421.488C117.267 421.449 117.299 421.417 117.339 421.397C117.474 421.325 120.629 419.558 122.144 419.957C122.286 419.99 122.419 420.051 122.536 420.136C122.652 420.222 122.75 420.33 122.822 420.453C122.918 420.588 122.97 420.749 122.97 420.913C122.97 421.078 122.918 421.239 122.822 421.373C122.464 421.906 121.343 422.039 120.185 422.039ZM118.09 421.482C119.791 421.712 122.083 421.676 122.489 421.119C122.489 421.046 122.6 420.925 122.489 420.659C122.444 420.585 122.383 420.52 122.311 420.47C122.239 420.42 122.157 420.386 122.07 420.369C121.097 420.139 119.199 420.95 118.152 421.506L118.09 421.482Z" fill="#407BFF"/>
<path d="M117.437 421.821C117.397 421.832 117.354 421.832 117.314 421.821C117.286 421.797 117.263 421.767 117.248 421.734C117.233 421.7 117.226 421.664 117.228 421.627C117.228 421.518 117.487 419.123 118.633 418.203C118.799 418.059 118.995 417.952 119.208 417.889C119.421 417.827 119.645 417.81 119.865 417.84C120.456 417.901 120.616 418.191 120.653 418.433C120.826 419.437 118.657 421.361 117.573 421.833L117.437 421.821ZM119.655 418.191C119.378 418.189 119.111 418.289 118.904 418.469C118.218 419.236 117.788 420.19 117.671 421.204C118.793 420.55 120.259 419.038 120.136 418.433C120.136 418.433 120.136 418.239 119.717 418.191H119.655Z" fill="#407BFF"/>
<path d="M116.476 420.575H106.619C106.438 420.574 106.263 420.636 106.124 420.748C105.984 420.861 105.889 421.018 105.855 421.192L104.056 429.093C104.013 429.284 104.015 429.481 104.061 429.671C104.107 429.861 104.196 430.038 104.322 430.19C104.447 430.341 104.606 430.462 104.786 430.545C104.966 430.627 105.163 430.669 105.362 430.666C108.935 430.606 114.086 430.4 118.558 430.4C123.807 430.4 128.33 430.69 134.478 430.69C138.174 430.69 139.222 427.06 137.669 426.661C130.584 425.136 124.806 424.979 118.682 421.276C118.03 420.839 117.265 420.596 116.476 420.575Z" fill="#263238"/>
<path d="M109.823 401.033H118.879L116.932 416.025L108.061 414.682L109.823 401.033Z" fill="#CF6F64"/>
<path d="M113.987 256.098C113.987 256.098 121.565 280.976 134.084 312.969C138.162 323.375 139.739 333.394 136.905 342.202C128.12 369.549 120.53 410.677 120.53 410.677L105.436 409.068C105.436 409.068 104.857 367.117 110.204 345.494C112.952 334.398 112.016 330.356 109.194 326.69C70.7506 276.463 81.0761 256.134 81.0761 256.134L113.987 256.098Z" fill="#407BFF"/>
<path opacity="0.3" d="M113.987 256.098C113.987 256.098 121.565 280.976 134.084 312.969C138.162 323.375 139.739 333.394 136.905 342.202C128.12 369.549 120.53 410.677 120.53 410.677L105.436 409.068C105.436 409.068 104.857 367.117 110.204 345.494C112.952 334.398 112.016 330.356 109.194 326.69C70.7506 276.463 81.0761 256.134 81.0761 256.134L113.987 256.098Z" fill="black"/>
<path d="M123.142 408.16L122.354 414.065L104.537 411.1L104.007 405.703L123.142 408.16Z" fill="#407BFF"/>
<path opacity="0.1" d="M123.142 408.16L122.354 414.065L104.537 411.1L104.007 405.703L123.142 408.16Z" fill="black"/>
<path d="M254.096 105.912H238.694V107.122H254.096V105.912Z" fill="#407BFF"/>
<path opacity="0.2" d="M254.096 105.912H238.694V107.122H254.096V105.912Z" fill="black"/>
<path d="M209.135 55.9872H292.589C294.814 55.9904 296.946 56.8596 298.519 58.4042C300.092 59.9488 300.977 62.0429 300.98 64.2273V94.6469C300.977 96.8314 300.092 98.9254 298.519 100.47C296.946 102.015 294.814 102.884 292.589 102.887H286.798L289.053 111.829C285.78 111.537 282.602 110.593 279.713 109.056C276.824 107.518 274.283 105.42 272.246 102.887H209.135C206.911 102.881 204.781 102.011 203.209 100.467C201.637 98.9226 200.75 96.8304 200.744 94.6469V64.2273C200.75 62.0439 201.637 59.9517 203.209 58.4077C204.781 56.8638 206.911 55.9936 209.135 55.9872Z" fill="#407BFF"/>
<path opacity="0.2" d="M209.135 55.9872H292.589C294.814 55.9904 296.946 56.8596 298.519 58.4042C300.092 59.9488 300.977 62.0429 300.98 64.2273V94.6469C300.977 96.8314 300.092 98.9254 298.519 100.47C296.946 102.015 294.814 102.884 292.589 102.887H286.798L289.053 111.829C285.78 111.537 282.602 110.593 279.713 109.056C276.824 107.518 274.283 105.42 272.246 102.887H209.135C206.911 102.881 204.781 102.011 203.209 100.467C201.637 98.9226 200.75 96.8304 200.744 94.6469V64.2273C200.75 62.0439 201.637 59.9517 203.209 58.4077C204.781 56.8638 206.911 55.9936 209.135 55.9872Z" fill="black"/>
<path d="M255.181 13.2617H253.949V23.3411H255.181V13.2617Z" fill="#407BFF"/>
<path opacity="0.1" d="M255.181 13.2617H253.949V23.3411H255.181V13.2617Z" fill="#FAFAFA"/>
<path d="M242.477 0H159.023C156.803 0.00317579 154.674 0.869038 153.102 2.40845C151.53 3.94786 150.642 6.03571 150.632 8.21596V38.6598C150.635 40.8442 151.52 42.9383 153.093 44.4829C154.666 46.0275 156.798 46.8967 159.023 46.8999H164.814L162.51 55.8419C165.788 55.5603 168.974 54.6254 171.872 53.0942C174.77 51.563 177.32 49.4677 179.366 46.9362H242.477C244.701 46.9298 246.831 46.0596 248.403 44.5157C249.976 42.9717 250.862 40.8795 250.868 38.6961V8.21596C250.855 6.0367 249.966 3.95068 248.395 2.41195C246.823 0.873224 244.696 0.00634423 242.477 0Z" fill="#407BFF"/>
<path opacity="0.1" d="M242.477 0H159.023C156.803 0.00317579 154.674 0.869038 153.102 2.40845C151.53 3.94786 150.642 6.03571 150.632 8.21596V38.6598C150.635 40.8442 151.52 42.9383 153.093 44.4829C154.666 46.0275 156.798 46.8967 159.023 46.8999H164.814L162.51 55.8419C165.788 55.5603 168.974 54.6254 171.872 53.0942C174.77 51.563 177.32 49.4677 179.366 46.9362H242.477C244.701 46.9298 246.831 46.0596 248.403 44.5157C249.976 42.9717 250.862 40.8795 250.868 38.6961V8.21596C250.855 6.0367 249.966 3.95068 248.395 2.41195C246.823 0.873224 244.696 0.00634423 242.477 0Z" fill="#FAFAFA"/>
</svg>
