<svg width="23" height="24" viewBox="0 0 23 24" fill="none" xmlns="http://www.w3.org/2000/svg">
<path d="M21.2879 11.5227L12.0979 20.7127C10.9721 21.8385 9.44513 22.471 7.85295 22.471C6.26076 22.471 4.73379 21.8385 3.60795 20.7127C2.4821 19.5868 1.84961 18.0599 1.84961 16.4677C1.84961 14.8755 2.4821 13.3485 3.60795 12.2227L12.7979 3.03267C13.5485 2.2821 14.5665 1.86044 15.6279 1.86044C16.6894 1.86044 17.7074 2.2821 18.4579 3.03267C19.2085 3.78323 19.6302 4.80121 19.6302 5.86267C19.6302 6.92412 19.2085 7.94211 18.4579 8.69267L9.25795 17.8827C8.88266 18.2579 8.37367 18.4688 7.84295 18.4688C7.31222 18.4688 6.80323 18.2579 6.42795 17.8827C6.05266 17.5074 5.84183 16.9984 5.84183 16.4677C5.84183 15.9369 6.05266 15.4279 6.42795 15.0527L14.9179 6.57267" stroke="black" stroke-opacity="0.8" stroke-width="2" stroke-linecap="round" stroke-linejoin="round"/>
</svg>
