<svg width="126" height="49" viewBox="0 0 126 49" fill="none" xmlns="http://www.w3.org/2000/svg">
<path d="M24.3 33.9V37H0.45V1.5H23.85V4.6H3.95V17.4H21.3V20.35H3.95V33.9H24.3ZM30.3688 0.499999H33.7688V31.1C33.7688 32.4 33.9854 33.25 34.4188 33.65C34.8854 34.05 35.4688 34.25 36.1688 34.25C36.7688 34.25 37.3688 34.1833 37.9688 34.05C38.6021 33.9167 39.1188 33.7833 39.5188 33.65L40.1188 36.4C39.4854 36.6667 38.7021 36.8833 37.7688 37.05C36.8688 37.2167 36.0854 37.3 35.4188 37.3C33.8854 37.3 32.6521 36.85 31.7188 35.95C30.8188 35.05 30.3688 33.8167 30.3688 32.25V0.499999ZM55.0918 37.5C52.5918 37.5 50.3585 36.8833 48.3918 35.65C46.4251 34.4167 44.8751 32.7667 43.7418 30.7C42.6085 28.6333 42.0418 26.3667 42.0418 23.9C42.0418 21.4667 42.5918 19.2333 43.6918 17.2C44.8251 15.1667 46.3751 13.55 48.3418 12.35C50.3085 11.1167 52.5418 10.5 55.0418 10.5C57.6085 10.5 59.8585 11.1167 61.7918 12.35C63.7251 13.5833 65.2251 15.2167 66.2918 17.25C67.3918 19.25 67.9418 21.45 67.9418 23.85C67.9418 24.3833 67.9251 24.8333 67.8918 25.2H45.5918C45.7585 27.0667 46.2918 28.7333 47.1918 30.2C48.0918 31.6333 49.2418 32.7833 50.6418 33.65C52.0418 34.4833 53.5751 34.9 55.2418 34.9C56.9418 34.9 58.5418 34.4667 60.0418 33.6C61.5418 32.7333 62.6085 31.6 63.2418 30.2L66.1918 31C65.6585 32.2667 64.8251 33.4 63.6918 34.4C62.5918 35.3667 61.3085 36.1333 59.8418 36.7C58.3751 37.2333 56.7918 37.5 55.0918 37.5ZM45.4918 22.75H64.7418C64.6085 20.8833 64.0918 19.2333 63.1918 17.8C62.2918 16.3333 61.1418 15.2 59.7418 14.4C58.3418 13.5667 56.7918 13.15 55.0918 13.15C53.3918 13.15 51.8418 13.5667 50.4418 14.4C49.0418 15.2 47.8918 16.3333 46.9918 17.8C46.1251 19.2333 45.6251 20.8833 45.4918 22.75ZM86.4875 37.5C84.3208 37.5 82.3708 36.9333 80.6375 35.8C78.9375 34.6667 77.5875 33.2667 76.5875 31.6V47.65H73.1875V10.95H76.2375V16C77.2708 14.3667 78.6375 13.05 80.3375 12.05C82.0708 11.0167 83.9375 10.5 85.9375 10.5C87.7375 10.5 89.3875 10.8833 90.8875 11.65C92.3875 12.3833 93.6875 13.3833 94.7875 14.65C95.9208 15.9167 96.7875 17.3667 97.3875 19C97.9875 20.6 98.2875 22.2667 98.2875 24C98.2875 26.4333 97.7875 28.6833 96.7875 30.75C95.8208 32.7833 94.4375 34.4167 92.6375 35.65C90.8708 36.8833 88.8208 37.5 86.4875 37.5ZM85.5375 34.5C87.4375 34.5 89.0708 34 90.4375 33C91.8375 31.9667 92.9208 30.65 93.6875 29.05C94.4542 27.45 94.8375 25.7667 94.8375 24C94.8375 22.1333 94.4042 20.4 93.5375 18.8C92.6708 17.2 91.5042 15.9167 90.0375 14.95C88.6042 13.9833 86.9708 13.5 85.1375 13.5C84.0042 13.5 82.8042 13.8 81.5375 14.4C80.3042 14.9667 79.2042 15.75 78.2375 16.75C77.3042 17.7167 76.7542 18.7833 76.5875 19.95V27.95C77.3542 29.7833 78.5542 31.3333 80.1875 32.6C81.8208 33.8667 83.6042 34.5 85.5375 34.5ZM104.668 45C105.135 45.0333 105.585 45.05 106.018 45.05C106.451 45.0833 106.768 45.0667 106.968 45C107.368 44.9667 107.735 44.7333 108.068 44.3C108.435 43.9 108.868 43.1333 109.368 42C109.901 40.9 110.618 39.2333 111.518 37L100.168 10.95H103.768L113.318 33.5L122.118 10.95H125.518L112.018 44.55C111.651 45.5167 111.035 46.35 110.168 47.05C109.301 47.75 108.151 48.1167 106.718 48.15C106.418 48.1833 106.101 48.1833 105.768 48.15C105.435 48.15 105.068 48.1167 104.668 48.05V45Z" fill="white"/>
</svg>
