<svg width="112" height="25" viewBox="0 0 112 25" fill="none" xmlns="http://www.w3.org/2000/svg">
<path d="M3.58 22.76V13.66H16.25V11.455H3.58V2.74H17.79V0.499998H0.99V25H18.315V22.76H3.58ZM24.4031 25H40.7131V22.76H26.9931V0.499998H24.4031V25ZM47.6034 22.76V13.66H60.2734V11.455H47.6034V2.74H61.8134V0.499998H45.0134V25H62.3384V22.76H47.6034ZM77.5965 0.499998H68.4265V25H71.0165V17.265H77.5965C83.8265 17.265 87.6065 14.115 87.6065 8.9C87.6065 3.65 83.8265 0.499998 77.5965 0.499998ZM77.5265 14.99H71.0165V2.74H77.5265C82.4265 2.74 85.0165 4.98 85.0165 8.9C85.0165 12.75 82.4265 14.99 77.5265 14.99ZM111.407 0.499998H108.817L100.417 14.255L92.0168 0.499998H89.2518L99.0518 16.53V25H101.607V16.53L111.407 0.499998Z" fill="#404040"/>
</svg>
