<svg width="640" height="604" viewBox="0 0 640 604" fill="none" xmlns="http://www.w3.org/2000/svg">
<path d="M543.339 294.942C418.474 224.459 216.683 224.459 92.6156 294.942C-31.4517 365.424 -30.7779 479.691 94.087 550.16C218.952 620.629 420.757 620.643 544.811 550.16C668.864 479.678 668.218 365.424 543.339 294.942Z" fill="#F5F5F5"/>
<path d="M588.431 418.874C597.645 413.685 612.524 413.685 621.683 418.874C630.841 424.063 630.786 432.492 621.572 437.695C612.359 442.897 597.48 442.897 588.321 437.695C579.162 432.492 579.217 424.104 588.431 418.874Z" fill="#E0E0E0"/>
<path d="M326.476 426.47L309.438 403.831C307.719 401.546 305.516 399.649 302.979 398.271C300.442 396.893 297.631 396.066 294.737 395.846L269.627 393.964L229.747 370.264L244.668 361.835C244.864 361.714 245.025 361.546 245.137 361.347C245.249 361.149 245.307 360.926 245.307 360.699C245.307 360.472 245.249 360.249 245.137 360.051C245.025 359.852 244.864 359.684 244.668 359.563L238.466 356.108C237.243 355.424 235.859 355.064 234.45 355.064C233.041 355.064 231.657 355.424 230.435 356.108L84.1859 438.77C83.9899 438.891 83.8285 439.059 83.7167 439.258C83.6048 439.456 83.5461 439.679 83.5461 439.906C83.5461 440.133 83.6048 440.356 83.7167 440.554C83.8285 440.753 83.9899 440.921 84.1859 441.042L90.2366 444.457C91.4633 445.15 92.8555 445.516 94.2727 445.516C95.69 445.516 97.0822 445.15 98.3088 444.457L161.786 408.617L201.13 430.677L206.273 444.833C207.856 449.178 210.776 452.939 214.631 455.598C218.487 458.258 223.089 459.686 227.808 459.688H264.525L289.443 473.749L349.648 439.536L326.476 426.47Z" fill="#E0E0E0"/>
<path d="M550.49 405.579C510.693 383.129 446.376 383.129 406.84 405.579C371.898 425.421 368.02 456.152 395.042 478.549C373.231 477.204 350.651 481.237 333.998 490.741C304.776 507.344 304.927 534.257 334.342 550.859C363.757 567.462 411.351 567.448 440.505 550.859C463.745 537.645 468.379 517.91 454.504 502.034C488.003 506.779 524.871 501.738 550.971 486.924C590.507 464.473 590.301 428.056 550.49 405.579Z" fill="#E0E0E0"/>
<path d="M88.5176 467.579C78.0388 461.664 61.0968 461.664 50.6868 467.579C40.2768 473.494 40.3318 483.092 50.8106 489.007C61.2893 494.922 78.2314 494.922 88.6414 489.007C99.0513 483.092 99.0101 473.494 88.5176 467.579Z" fill="#E0E0E0"/>
<path d="M190.541 4.74365L197.898 0.630035L198.352 157.835L198.338 157.848L139.041 190.945L139.014 182.718L138.574 33.7406L190.541 4.74365Z" fill="#F0F0F0"/>
<path opacity="0.1" d="M190.981 153.708L190.541 4.74365L197.898 0.630035L198.352 157.835L198.338 157.848L190.954 153.721L190.981 153.708Z" fill="black"/>
<path opacity="0.2" d="M139.014 182.718L190.954 153.721L198.338 157.848L139.041 190.945L139.014 182.718Z" fill="black"/>
<path d="M109.393 50.0337L116.75 45.9201L117.204 203.125L117.19 203.138L57.8928 236.235L57.8653 228.008L57.4253 79.0307L109.393 50.0337Z" fill="#F0F0F0"/>
<path opacity="0.1" d="M109.833 198.998L109.393 50.0337L116.75 45.9201L117.204 203.125L117.19 203.138L109.805 199.011L109.833 198.998Z" fill="black"/>
<path opacity="0.2" d="M57.8654 228.008L109.805 199.011L117.19 203.138L57.8929 236.235L57.8654 228.008Z" fill="black"/>
<path d="M361.997 92.9712C361.543 92.5007 361.103 92.0168 360.621 91.5194L360.333 91.1967C359.604 90.3767 358.957 89.5432 358.215 88.6829L357.995 88.4005C357.445 87.7149 356.922 87.0562 356.4 86.29L356.166 85.9808C355.671 85.2817 355.19 84.6365 354.722 83.8568C354.598 83.682 354.488 83.5072 354.378 83.3325C353.993 82.741 353.622 82.1495 353.264 81.5445C353.178 81.424 353.1 81.2983 353.031 81.1681C352.618 80.4825 352.219 79.8238 351.834 79.0844L351.559 78.5467C351.257 77.9955 350.968 77.4309 350.679 76.8663L350.404 76.3017C350.046 75.5892 349.716 74.8767 349.386 74.1508L349.263 73.8416C348.974 73.1829 348.699 72.4973 348.437 71.8789L348.204 71.2874C347.901 70.5077 347.612 69.728 347.351 68.9483C347.351 68.9483 347.351 68.8273 347.282 68.7601C347.007 67.9535 346.76 67.1469 346.526 66.3403L346.402 65.8832C346.127 64.9422 345.893 64.0012 345.687 63.0736C345.687 62.8585 345.605 62.6569 345.55 62.4552L345.343 61.3529C345.343 61.1243 345.247 60.8958 345.22 60.6538C345.22 60.2774 345.096 59.901 345.041 59.5246C344.986 59.1482 344.972 59.081 344.945 58.8524C344.835 58.0459 344.766 57.2393 344.697 56.4461C344.697 56.2714 344.697 56.0966 344.697 55.9353C344.697 55.1152 344.615 54.2952 344.615 53.4886C344.615 52.9374 344.615 52.3863 344.615 51.862V51.257C344.615 50.9344 344.614 50.5983 344.697 50.2891C344.78 49.9799 344.697 49.8858 344.766 49.6842C344.835 49.4826 344.766 49.0658 344.876 48.7701C344.986 48.4743 344.958 48.3533 344.986 48.1517C345.013 47.95 345.082 47.6005 345.137 47.3316C345.192 47.0628 345.233 46.9149 345.275 46.6998C345.316 46.4847 345.398 46.2024 345.453 45.947C345.508 45.6916 345.577 45.5437 345.632 45.342C345.687 45.1404 345.77 44.8715 345.852 44.643L346.058 44.0515C346.141 43.8364 346.21 43.6079 346.306 43.3928C346.402 43.1777 346.471 43.0298 346.54 42.8416C346.608 42.6534 346.719 42.4249 346.815 42.2232C346.911 42.0216 346.994 41.8737 347.09 41.6989C347.186 41.5242 347.282 41.3091 347.392 41.1209L347.695 40.6369L348.025 40.0858L348.355 39.6287C348.479 39.4674 348.589 39.2926 348.726 39.1313C348.864 38.97 348.96 38.849 349.084 38.7011C349.208 38.5532 349.331 38.3919 349.469 38.244C349.606 38.0962 349.73 37.9752 349.854 37.8408L350.266 37.424L350.679 37.061L351.119 36.6846L351.559 36.362L352.027 36.0259L352.48 35.7302C353.895 34.866 355.455 34.2517 357.087 33.9153C353.993 37.3165 352.178 42.4921 352.15 49.1599C352.15 49.9665 352.15 50.7865 352.233 51.6066C352.233 51.7813 352.233 51.9426 352.233 52.1174C352.233 52.9106 352.37 53.7171 352.48 54.5237C352.48 54.7523 352.549 54.9808 352.577 55.1959C352.604 55.411 352.687 55.9487 352.755 56.3251C352.824 56.7015 352.838 56.836 352.893 57.0914L353.099 58.1937C353.099 58.3954 353.196 58.597 353.237 58.8121C353.443 59.7397 353.677 60.6807 353.938 61.6217C353.992 61.7762 354.038 61.9332 354.076 62.0922C354.309 62.8854 354.557 63.692 354.832 64.4986C354.832 64.4986 354.832 64.633 354.901 64.6868C355.162 65.4799 355.451 66.2596 355.753 67.0259C355.836 67.2275 355.905 67.4292 355.987 67.6174C356.248 68.2761 356.523 68.9617 356.812 69.5801L356.936 69.8893C357.266 70.6152 357.596 71.3277 357.954 72.0402C358.036 72.2284 358.132 72.4166 358.229 72.6048C358.517 73.1694 358.806 73.734 359.109 74.2987L359.384 74.8229C359.769 75.522 360.168 76.1673 360.58 76.9066C360.649 77.0411 360.731 77.1621 360.814 77.2965C361.171 77.888 361.543 78.4929 361.928 79.0844L362.258 79.5953C362.739 80.3078 363.221 81.0202 363.716 81.7193L363.949 82.0285C364.472 82.7544 364.994 83.4535 365.545 84.1525L365.765 84.4348C366.452 85.2952 367.14 86.1286 367.882 86.9487L368.157 87.2713L369.532 88.7366L369.615 88.8173C370.096 89.3147 370.591 89.8121 371.086 90.2826C371.183 90.3901 371.293 90.4842 371.403 90.5918C372.049 91.1967 372.695 91.8017 373.369 92.3797L373.548 92.541C374.236 93.1325 374.923 93.6837 375.638 94.2349L376.051 94.5441C376.738 95.0684 377.426 95.5658 378.169 96.0497L378.54 96.2917C379.296 96.7757 380.053 97.2462 380.809 97.636C381.565 98.0259 382.033 98.2947 382.638 98.6039L383.147 98.8459L384.522 99.4643L385.003 99.6659L386.268 100.136L386.585 100.244C387.107 100.419 387.63 100.58 388.138 100.715L389.046 100.93L389.459 101.037C389.899 101.131 390.325 101.198 390.751 101.266C391.388 101.367 392.031 101.43 392.677 101.454H393.062C393.625 101.454 394.175 101.454 394.726 101.454H395.001C395.438 101.426 395.874 101.377 396.307 101.306H396.706L397.118 101.212C396.099 102.346 394.896 103.309 393.557 104.062L393.419 104.129H393.323C392.979 104.317 392.621 104.479 392.264 104.64L391.893 104.788C391.517 104.94 391.132 105.075 390.738 105.191H390.531C390.077 105.312 389.61 105.42 389.156 105.5H388.785C388.358 105.5 387.946 105.608 387.506 105.648H387.176C386.64 105.648 386.089 105.648 385.539 105.648H385.182H384.274L383.229 105.527L382.569 105.406L381.936 105.285L381.551 105.191H381.441L380.63 105.003C380.121 104.855 379.612 104.707 379.104 104.532L378.787 104.425L377.508 103.954L377.055 103.766C376.596 103.578 376.138 103.376 375.679 103.161L375.377 103.013C375.3 102.986 375.226 102.95 375.157 102.906C374.552 102.61 373.947 102.301 373.328 101.951C372.709 101.602 371.815 101.051 371.073 100.607H370.963L370.688 100.432C369.973 99.9482 369.312 99.4508 368.57 98.9266L368.309 98.7249L368.157 98.6174C367.456 98.0662 366.782 97.5016 366.067 96.9235C366.027 96.8911 365.99 96.8551 365.957 96.816H365.888C365.214 96.2514 364.513 95.6464 363.922 95.0415L363.606 94.7323C363.11 94.2618 362.615 93.7644 362.134 93.267L361.997 92.9712Z" fill="#EBEBEB"/>
<path d="M396.719 77.6326V79.3667L401.711 82.1763V80.4422L396.719 77.6326Z" fill="white"/>
<path d="M356.358 41.1747L355.588 42.2232L359.906 47.4795L360.676 46.4175L356.358 41.1747Z" fill="white"/>
<path d="M405.933 83.6954C405.933 101.535 392.965 108.727 377.055 99.8273C361.144 90.9279 348.383 69.0827 348.424 51.2436C348.465 33.4045 361.392 26.2124 377.302 35.1118C393.213 44.0112 405.988 65.8563 405.933 83.6954ZM364.128 66.4747C364.249 66.8522 364.502 67.1759 364.843 67.3889C364.935 67.4443 365.039 67.4767 365.146 67.483L377.357 68.424C377.442 68.4481 377.533 68.444 377.615 68.4123C377.697 68.3807 377.766 68.3234 377.811 68.2492L385.801 55.0077C385.874 54.7742 385.88 54.5257 385.82 54.2889C385.759 54.0521 385.634 53.8358 385.457 53.6634C385.359 53.5515 385.243 53.4561 385.113 53.3811C384.838 53.2332 384.563 53.2467 384.426 53.4752L376.573 66.5016L364.541 65.574C364.156 65.574 363.963 65.9505 364.128 66.4882V66.4747ZM387.616 54.7926L390.119 51.3512L388.744 49.738L386.337 53.2198L387.712 54.8329L387.616 54.7926ZM388.744 98.362L390.119 98.2544L387.506 91.9361L386.131 92.0437L388.606 98.3082L388.744 98.362ZM356.276 70.2254L360.608 69.8624L359.851 67.9266L355.506 68.2896L356.276 70.2254ZM397.998 93.7778L398.769 92.7158L394.451 87.4595L393.68 88.5215L397.998 93.7778ZM356.359 41.1209L355.588 42.1695L359.906 47.4258L360.677 46.3637L356.359 41.1209ZM394.519 67.0125L398.851 66.6495L398.081 64.7271L393.749 65.0766L394.519 67.0125ZM365.641 36.6309L364.266 36.7384L366.741 43.0029L368.116 42.8954L365.627 36.6309H365.641ZM365.503 85.2145L368.02 81.7596L366.645 80.1599L364.128 83.6013L365.503 85.2145ZM357.637 57.2527V55.5723L352.646 52.7627V54.4834L357.637 57.3065V57.2527ZM401.711 80.4556L396.72 77.6326V79.3667L401.711 82.1764V80.4556ZM376.34 94.5979L377.866 95.4582V89.8524L376.34 88.9786V94.5979ZM378.031 40.3412L376.505 39.4808V45.1539L378.031 46.0277V40.4084" fill="#E0E0E0"/>
<path d="M376.491 39.4808L376.477 45.0866L378.003 45.9604L378.031 40.3412L376.491 39.4808Z" fill="white"/>
<path d="M388.854 49.7245L386.337 53.1659L387.671 54.7791L390.174 51.3377L388.854 49.7245Z" fill="white"/>
<path d="M398.081 64.7271L393.749 65.0766L394.519 67.0124L398.851 66.6495L398.081 64.7271Z" fill="white"/>
<path d="M394.45 87.4595L393.68 88.5216L397.998 93.7778L398.768 92.7158L394.45 87.4595Z" fill="white"/>
<path d="M387.561 91.9361L386.227 92.0436L388.702 98.3082L390.036 98.2006L387.561 91.9361Z" fill="white"/>
<path d="M376.353 88.9786L376.339 94.5978L377.866 95.4582L377.88 89.8524L376.353 88.9786Z" fill="white"/>
<path d="M366.7 80.1599L364.183 83.6013L365.503 85.2145L368.02 81.7596L366.7 80.1599Z" fill="white"/>
<path d="M359.837 67.9266L355.506 68.2895L356.276 70.2254L360.608 69.8624L359.837 67.9266Z" fill="white"/>
<path d="M352.646 52.7627V54.4834L357.637 57.3065V55.5723L352.646 52.7627Z" fill="white"/>
<path d="M365.641 36.6308L364.321 36.7384L366.796 43.0029L368.13 42.8954L365.641 36.6308Z" fill="white"/>
<path d="M377.178 66.6629C377.087 66.6075 376.983 66.5751 376.876 66.5688H376.628L364.596 65.6412C364.211 65.6412 364.018 66.0176 364.183 66.5554C364.304 66.9329 364.557 67.2566 364.898 67.4695C364.989 67.525 365.093 67.5573 365.201 67.5636L377.412 68.5047C377.797 68.5047 377.976 68.1417 377.811 67.6039C377.723 67.2262 377.498 66.8921 377.178 66.6629Z" fill="white"/>
<path d="M385.168 53.3676C384.893 53.2197 384.618 53.2332 384.48 53.4617L376.628 66.4881H376.876C376.983 66.4944 377.087 66.5268 377.178 66.5822C377.518 66.7931 377.768 67.1182 377.88 67.4964C378.045 68.0341 377.88 68.4374 377.481 68.397C377.566 68.4211 377.656 68.417 377.738 68.3854C377.82 68.3538 377.89 68.2964 377.935 68.2223L385.924 54.9808C385.997 54.7473 386.004 54.4988 385.943 54.262C385.883 54.0251 385.757 53.8089 385.581 53.6364C385.461 53.5231 385.321 53.432 385.168 53.3676Z" fill="#F5F5F5"/>
<path d="M396.871 105.648L397.325 105.299C397.495 105.171 397.655 105.032 397.806 104.882C397.957 104.761 398.108 104.64 398.246 104.505L398.7 104.048L399.112 103.618C399.265 103.461 399.407 103.295 399.539 103.121C399.662 102.973 399.8 102.825 399.924 102.664C400.047 102.502 400.185 102.301 400.309 102.126C400.432 101.951 400.556 101.803 400.666 101.629C400.776 101.454 400.914 101.239 401.024 101.037C401.134 100.835 401.257 100.688 401.354 100.513C401.45 100.338 401.574 100.096 401.684 99.881L401.986 99.3164L402.275 98.6443C402.358 98.4426 402.454 98.2544 402.536 98.0528C402.619 97.8511 402.715 97.5688 402.798 97.3268C402.88 97.0848 402.963 96.9101 403.031 96.7084C403.1 96.5068 403.183 96.1976 403.251 95.9422C403.32 95.6868 403.389 95.512 403.444 95.2835C403.499 95.0549 403.582 94.7592 403.637 94.4903L403.802 93.7913C403.802 93.509 403.898 93.2132 403.953 92.9309L404.077 92.2319L404.2 91.2371L404.283 90.6052L404.365 89.4626V88.9114C404.365 88.3378 404.365 87.7463 404.365 87.1369C404.365 86.2631 404.365 85.3893 404.283 84.4483C404.277 84.3902 404.277 84.3316 404.283 84.2735C404.214 83.2921 404.132 82.2973 403.994 81.2891V80.953L403.747 79.3264C403.747 79.0575 403.65 78.7887 403.595 78.5064C403.513 78.1165 403.444 77.7132 403.361 77.3099V77.1217C402.878 74.8755 402.262 72.6582 401.519 70.4808C400.525 67.5509 399.331 64.69 397.943 61.9175L397.861 61.7427C397.063 60.1699 396.224 58.6105 395.317 57.0914L395.069 56.6747C394.657 55.9891 394.23 55.3303 393.804 54.6582L393.502 54.1877C392.319 52.3997 391.081 50.679 389.761 49.0255C388.468 47.4033 387.093 45.8484 385.636 44.3607C385.099 43.7961 384.549 43.2584 383.999 42.7072L383.724 42.4652C383.009 41.7662 382.28 41.1209 381.524 40.4487H381.441C380.671 39.7766 379.874 39.1044 379.076 38.5129L378.65 38.1768C377.893 37.6122 377.137 37.0745 376.353 36.5637L376.271 36.4964C375.776 36.1738 375.281 35.8512 374.786 35.5554C374.291 35.2597 373.933 35.0311 373.493 34.7892C372.833 34.4127 372.118 34.0767 371.526 33.754C369.649 32.8162 367.682 32.0597 365.654 31.4956L365.118 31.3611L364.266 31.1595L363.674 31.052L362.877 30.9175H362.808H362.23L361.213 30.81H361.13H360.814C360.076 30.7696 359.337 30.7696 358.6 30.81H358.284C357.816 30.81 357.349 30.8906 356.908 30.9578C356.258 31.0494 355.615 31.1842 354.983 31.3611H354.873H354.749C354.323 31.4956 353.911 31.6435 353.498 31.8048L353.306 31.8854C352.742 32.1274 352.178 32.3828 351.642 32.6786L359.26 28.3499L359.425 28.2558L359.631 28.1482C360.003 27.96 360.388 27.7718 360.773 27.6105C360.843 27.5693 360.917 27.5334 360.993 27.503H361.171C361.63 27.3237 362.088 27.1624 362.547 27.019C363.058 26.8756 363.577 26.7589 364.101 26.6695H364.279H364.527C364.982 26.5903 365.441 26.5364 365.902 26.5082H366.136H366.205C366.805 26.4745 367.406 26.4745 368.006 26.5082H368.185H368.776H369.189C369.601 26.5082 370.028 26.5888 370.454 26.656L371.829 26.9115L372.269 27.019L373.163 27.2341H373.245C373.795 27.382 374.359 27.5433 374.923 27.7315L375.267 27.8659C375.721 28.0138 376.175 28.1886 376.642 28.3768L376.835 28.444L377.178 28.5919C377.66 28.7935 378.155 29.022 378.65 29.2506L379.214 29.5194C379.86 29.8421 380.589 30.1781 381.18 30.5546C381.771 30.931 382.817 31.5225 383.628 32.0602L384.04 32.3291C384.811 32.8399 385.581 33.3776 386.337 33.9422L386.763 34.2783C387.533 34.8698 388.29 35.4748 389.032 36.12C389.103 36.1711 389.167 36.2297 389.225 36.2948C389.954 36.9132 390.6 37.5584 391.356 38.2306L391.563 38.4188L391.7 38.5532C392.236 39.0641 392.759 39.5884 393.282 40.1395L393.364 40.2202C393.859 40.7445 394.34 41.2688 394.822 41.8065L394.959 41.9544L395.124 42.156C395.908 43.0433 396.678 43.944 397.421 44.8447V44.9253C397.48 44.9937 397.535 45.0656 397.586 45.1404C398.182 45.8932 398.759 46.6595 399.318 47.4392L399.497 47.6677C399.525 47.7051 399.548 47.7457 399.566 47.7887C400.116 48.5281 400.639 49.2944 401.147 50.0741C401.19 50.1508 401.241 50.2229 401.299 50.2891L401.505 50.6387C401.918 51.2705 402.316 51.983 402.715 52.561L402.894 52.8568C402.898 52.897 402.898 52.9376 402.894 52.9778C403.348 53.7306 403.774 54.4834 404.187 55.2362L404.283 55.4244L404.489 55.8008L405.438 57.6291C405.438 57.7501 405.562 57.8845 405.63 58.0055C405.699 58.1265 405.699 58.1669 405.741 58.2341C406.112 59.0138 406.483 59.7935 406.827 60.5732C406.853 60.656 406.885 60.7369 406.923 60.8152C407.239 61.5276 407.528 62.2401 407.817 62.9526C407.817 63.0736 407.913 63.1812 407.968 63.3021C408.023 63.4231 408.037 63.4903 408.065 63.5979C408.395 64.4314 408.711 65.2783 409 66.1252V66.2731C409.302 67.1693 409.577 68.0655 409.825 68.9617L409.921 69.2978C409.927 69.3559 409.927 69.4144 409.921 69.4726C410.196 70.4942 410.457 71.5025 410.677 72.5107C410.684 72.6002 410.684 72.6901 410.677 72.7796L410.76 73.1829C410.842 73.5727 410.911 73.976 410.994 74.3659C411.076 74.7557 411.09 74.917 411.145 75.1994C411.2 75.4817 411.269 76.0194 411.324 76.4227C411.324 76.6109 411.392 76.7991 411.42 77.0007C411.414 77.0499 411.414 77.0995 411.42 77.1486C411.53 78.0224 411.612 78.8962 411.681 79.7566C411.681 79.9448 411.681 80.1196 411.681 80.3078C411.681 81.195 411.777 82.0688 411.777 82.9964C411.777 92.5814 408.285 99.3164 402.715 102.489L395.097 106.818L395.578 106.509C395.743 106.414 395.908 106.32 396.059 106.213L396.871 105.648Z" fill="#EBEBEB"/>
<path d="M342.29 52.0905C342.29 71.368 356.042 94.8533 373.273 104.519C382.156 109.533 390.187 109.896 395.867 106.334C396.032 106.24 396.197 106.146 396.348 106.038L396.871 105.662L397.325 105.312C397.495 105.184 397.655 105.045 397.806 104.895C397.957 104.774 398.108 104.653 398.246 104.519L398.7 104.062L399.112 103.632C399.265 103.475 399.407 103.309 399.539 103.134C399.662 102.986 399.8 102.839 399.924 102.677C400.047 102.516 400.185 102.314 400.309 102.139C400.432 101.965 400.556 101.817 400.666 101.642C400.776 101.467 400.914 101.252 401.024 101.051C401.134 100.849 401.257 100.701 401.354 100.526C401.45 100.352 401.574 100.11 401.684 99.8945L401.986 99.3299L402.275 98.6577C402.358 98.4561 402.454 98.2679 402.536 98.0662C402.619 97.8646 402.715 97.5822 402.798 97.3403C402.88 97.0983 402.963 96.9235 403.031 96.7219C403.1 96.5202 403.183 96.211 403.251 95.9556C403.32 95.7002 403.389 95.5254 403.444 95.2969C403.499 95.0684 403.582 94.7726 403.637 94.5038L403.802 93.8047C403.802 93.5224 403.898 93.2267 403.953 92.9444L404.077 92.2453L404.2 91.2505L404.283 90.6187L404.365 89.476V88.9248C404.365 88.3513 404.365 87.7598 404.365 87.1503C404.365 86.2765 404.365 85.4027 404.283 84.4617V84.2869C404.214 83.3056 404.132 82.3108 403.994 81.3026V80.9665L403.747 79.3399C403.747 79.071 403.65 78.8021 403.595 78.5198C403.54 78.2375 403.444 77.7267 403.361 77.3234V77.1352C402.878 74.8889 402.262 72.6716 401.519 70.4942C400.525 67.5644 399.331 64.7034 397.943 61.9309L397.861 61.7562C397.063 60.1833 396.224 58.6239 395.317 57.1048L395.069 56.6881C394.657 56.0025 394.23 55.3438 393.804 54.6716L393.502 54.2011C392.319 52.4132 391.081 50.6924 389.761 49.0389C388.468 47.4168 387.093 45.8618 385.636 44.3741C385.099 43.8095 384.549 43.2718 383.999 42.7206L383.724 42.4786C383.009 41.7796 382.28 41.1343 381.524 40.4622H381.441C380.671 39.79 379.874 39.1178 379.076 38.5263C378.924 38.4218 378.777 38.3097 378.636 38.1903C377.88 37.6257 377.123 37.0879 376.339 36.5771L376.257 36.5099C375.762 36.1872 375.267 35.8646 374.772 35.5688C374.277 35.2731 373.919 35.0446 373.479 34.8026C372.819 34.4262 372.104 34.0901 371.513 33.7675C369.635 32.8296 367.669 32.0732 365.641 31.509L365.077 31.3746L364.224 31.1729C364.018 31.1729 363.812 31.0923 363.605 31.0519L362.808 30.9175L362.162 30.8368L361.144 30.7293H360.745C360.008 30.689 359.269 30.689 358.531 30.7293H358.174C357.706 30.7293 357.238 30.81 356.798 30.8772C356.148 30.9688 355.505 31.1035 354.873 31.2805H354.639C354.213 31.4149 353.801 31.5628 353.388 31.7241L353.168 31.8048C352.604 32.0467 352.04 32.3022 351.504 32.5979C345.797 35.7436 342.318 42.4652 342.29 52.0905ZM362.079 93.0653L361.997 92.9712C361.543 92.5007 361.103 92.0168 360.621 91.5194L360.333 91.1967C359.604 90.3767 358.957 89.5432 358.215 88.6829L357.995 88.4006C357.445 87.7015 356.922 87.0562 356.4 86.2765L356.166 85.9673C355.671 85.2683 355.189 84.623 354.722 83.8433C354.598 83.6686 354.488 83.4938 354.378 83.319C353.993 82.741 353.622 82.136 353.264 81.5311C353.178 81.4105 353.1 81.2848 353.03 81.1547C352.618 80.4691 352.219 79.8104 351.834 79.071L351.559 78.5333C351.256 77.9821 350.968 77.4175 350.679 76.8529L350.404 76.2883C350.046 75.5758 349.716 74.8633 349.386 74.1373L349.262 73.8281C348.974 73.1694 348.699 72.4838 348.437 71.8654L348.204 71.2739C347.901 70.4942 347.612 69.7145 347.351 68.9348C347.351 68.9348 347.351 68.8138 347.282 68.7466C347.007 67.94 346.76 67.1334 346.526 66.3269L346.402 65.8698C346.127 64.9288 345.893 63.9877 345.687 63.0602C345.687 62.8451 345.605 62.6434 345.55 62.4418L345.343 61.3394C345.343 61.1109 345.247 60.8824 345.22 60.6404C345.192 60.3984 345.082 59.8472 345.027 59.4439C344.972 59.0406 344.958 59.0003 344.931 58.7718C344.821 57.9652 344.752 57.1586 344.683 56.3654C344.683 56.1907 344.683 56.0159 344.683 55.8546C344.683 55.0346 344.601 54.2145 344.601 53.4079C344.601 52.8568 344.601 52.3056 344.601 51.7813V51.1764C344.601 50.8538 344.601 50.5177 344.683 50.2085C344.766 49.8993 344.683 49.8052 344.752 49.6035C344.821 49.4019 344.752 48.9851 344.862 48.6894C344.972 48.3936 344.944 48.2727 344.972 48.071C344.999 47.8694 345.068 47.5198 345.123 47.251C345.178 46.9821 345.22 46.8342 345.261 46.6191C345.302 46.4041 345.385 46.1217 345.44 45.8663C345.495 45.6109 345.563 45.463 345.618 45.2614C345.673 45.0597 345.756 44.7909 345.838 44.5623L346.045 43.9708C346.127 43.7557 346.196 43.5272 346.292 43.3121C346.388 43.097 346.457 42.9492 346.526 42.761C346.595 42.5727 346.705 42.3442 346.801 42.1426C346.897 41.9409 346.98 41.793 347.076 41.6183C347.172 41.4435 347.269 41.2284 347.379 41.0402L347.681 40.5563L348.011 40.0051L348.341 39.548C348.465 39.3867 348.575 39.2119 348.712 39.0506C348.85 38.8893 348.946 38.7683 349.07 38.6204C349.194 38.4726 349.317 38.3113 349.455 38.1634C349.593 38.0155 349.716 37.8945 349.84 37.7601L350.253 37.3433L350.665 36.9804L351.105 36.604L351.545 36.2813L352.013 35.9453L352.467 35.6495C353.882 34.7853 355.441 34.171 357.073 33.8347C361.708 32.8668 367.318 33.9288 373.369 37.3433C389.239 46.2965 402.083 68.0207 402.028 85.8598C402.028 92.5814 400.199 97.6898 397.104 101.091C396.085 102.225 394.882 103.188 393.543 103.941L393.405 104.008C393.02 104.21 392.621 104.398 392.223 104.573L391.851 104.721C391.475 104.873 391.09 105.007 390.696 105.124H390.49C390.022 105.245 389.541 105.352 389.115 105.447H388.743C388.317 105.447 387.905 105.554 387.465 105.594H387.135C386.598 105.594 386.034 105.594 385.471 105.594H385.113H384.205L383.16 105.473L382.5 105.352L381.868 105.231C381.703 105.231 381.538 105.151 381.373 105.11L380.561 104.922C379.497 104.626 378.45 104.272 377.426 103.86L376.972 103.672C376.408 103.43 375.858 103.188 375.294 102.906C375.217 102.878 375.143 102.842 375.074 102.798C374.469 102.502 373.864 102.193 373.245 101.844C372.627 101.494 371.733 100.943 370.99 100.499H370.88C369.986 99.9079 369.092 99.2761 368.226 98.6174L368.075 98.5098C367.332 97.9318 366.59 97.3403 365.874 96.7084H365.806C365.132 96.1438 364.431 95.5389 363.839 94.9339L363.523 94.6248C363.055 94.0601 362.56 93.5493 362.079 93.0653Z" fill="white"/>
<path d="M560.9 154.501L560.818 185.904L556.926 188.122L557.022 152.323L560.9 154.501Z" fill="#F0F0F0"/>
<path d="M602.843 209.631L602.829 214.027L556.926 188.122L560.818 185.904L602.843 209.631Z" fill="#F5F5F5"/>
<path d="M552.196 190.743L607.532 221.972L607.67 175.606L552.347 144.378L552.196 190.743ZM556.926 188.055L557.022 152.242L560.9 154.433L602.939 178.241L602.843 209.645V214.041L556.926 188.055Z" fill="#E0E0E0"/>
<path d="M552.333 144.378L556.225 142.173L611.548 173.402L607.656 175.606L552.333 144.378Z" fill="#F5F5F5"/>
<path d="M611.548 173.402L611.41 219.754L607.519 221.972L607.656 175.606L611.548 173.402Z" fill="#F0F0F0"/>
<path d="M562.551 90.8741L562.468 122.277L558.563 124.482L558.673 88.6829L562.551 90.8741Z" fill="#F0F0F0"/>
<path d="M604.493 145.991L604.479 150.4L558.563 124.482L562.468 122.277L604.493 145.991Z" fill="#F5F5F5"/>
<path d="M553.901 127.157L609.224 158.386L609.361 112.02L553.983 80.7514L553.901 127.157ZM558.618 124.469L558.728 88.6694L562.551 90.8606L604.589 114.588L604.493 145.978V150.387L558.618 124.469Z" fill="#E0E0E0"/>
<path d="M553.983 80.7514L557.875 78.5332L613.198 109.762L609.306 111.98L553.983 80.7514Z" fill="#F5F5F5"/>
<path d="M613.198 109.762L613.06 156.127L609.169 158.332L609.306 111.98L613.198 109.762Z" fill="#F0F0F0"/>
<path d="M574.267 166.425L562.798 175.257L562.771 183.874L600.89 205.383L600.918 196.766L593.657 182.664L587.138 187.611L589.435 194.615L586.093 188.404L574.267 166.425Z" fill="#E0E0E0"/>
<path d="M586.781 170.767C584.993 169.759 583.522 170.579 583.522 172.595C583.582 173.693 583.907 174.762 584.471 175.713C585.035 176.664 585.822 177.471 586.767 178.067C588.555 179.088 590.013 178.268 590.026 176.252C589.966 175.152 589.64 174.082 589.076 173.129C588.512 172.176 587.726 171.367 586.781 170.767Z" fill="#E0E0E0"/>
<path d="M575.903 102.798L564.448 111.617L564.421 120.234L602.54 141.757L602.568 133.139L595.307 119.024L588.775 123.985L591.085 130.989L587.744 124.764L575.903 102.798Z" fill="#E0E0E0"/>
<path d="M588.431 107.14C586.63 106.132 585.172 106.939 585.172 108.955C585.229 110.054 585.552 111.124 586.113 112.077C586.675 113.031 587.46 113.84 588.403 114.44C590.205 115.448 591.663 114.642 591.663 112.625C591.605 111.526 591.283 110.456 590.721 109.503C590.159 108.55 589.375 107.74 588.431 107.14Z" fill="#E0E0E0"/>
<path d="M240.79 68.8687C239.827 65.5483 232.924 59.23 226.048 59.3644C225.389 59.3846 224.738 59.5118 224.123 59.7408L90.7454 133.88C88.5148 135.119 86.725 136.996 85.616 139.257C84.7359 140.954 84.2655 142.826 84.2408 144.729V426.834C84.2408 434.012 92.7119 440.868 100.674 437.588C100.855 437.539 101.03 437.471 101.197 437.387L234.588 363.073C236.542 361.981 238.166 360.404 239.296 358.501C240.426 356.599 241.022 354.438 241.023 352.238V70.2265C241.053 69.7624 240.973 69.2977 240.79 68.8687Z" fill="#455A64"/>
<path d="M102.847 174.571C102.851 173.477 103.151 172.404 103.716 171.46C104.281 170.515 105.092 169.734 106.065 169.194L229.981 100.271C230.465 100.001 231.012 99.8596 231.569 99.8607C232.126 99.8619 232.673 100.006 233.156 100.277C233.638 100.549 234.039 100.94 234.32 101.41C234.6 101.881 234.749 102.415 234.753 102.96V330.418C234.741 331.511 234.439 332.581 233.874 333.524C233.31 334.468 232.503 335.25 231.535 335.795L107.674 404.84C107.19 405.109 106.642 405.251 106.086 405.25C105.529 405.249 104.982 405.105 104.499 404.833C104.017 404.561 103.615 404.17 103.335 403.7C103.055 403.229 102.906 402.695 102.902 402.151L102.847 174.571Z" fill="#5A4FDC"/>
<path opacity="0.2" d="M102.847 174.571C102.851 173.477 103.151 172.404 103.716 171.46C104.281 170.515 105.092 169.734 106.065 169.194L229.981 100.271C230.465 100.001 231.012 99.8596 231.569 99.8607C232.126 99.8619 232.673 100.006 233.156 100.277C233.638 100.549 234.039 100.94 234.32 101.41C234.6 101.881 234.749 102.415 234.753 102.96V330.418C234.741 331.511 234.439 332.581 233.874 333.524C233.31 334.468 232.503 335.25 231.535 335.795L107.674 404.84C107.19 405.109 106.642 405.251 106.086 405.25C105.529 405.249 104.982 405.105 104.499 404.833C104.017 404.561 103.615 404.17 103.335 403.7C103.055 403.229 102.906 402.695 102.902 402.151L102.847 174.571Z" fill="black"/>
<path opacity="0.1" d="M102.847 174.571C102.851 173.477 103.151 172.404 103.716 171.46C104.281 170.515 105.092 169.734 106.065 169.194L229.981 100.271C230.465 100.001 231.012 99.8596 231.569 99.8607C232.126 99.8619 232.673 100.006 233.156 100.277C233.638 100.549 234.039 100.94 234.32 101.41C234.6 101.881 234.749 102.415 234.753 102.96V330.418C234.741 331.511 234.439 332.581 233.874 333.524C233.31 334.468 232.503 335.25 231.535 335.795L107.674 404.84C107.19 405.109 106.642 405.251 106.086 405.25C105.529 405.249 104.982 405.105 104.499 404.833C104.017 404.561 103.615 404.17 103.335 403.7C103.055 403.229 102.906 402.695 102.902 402.151L102.847 174.571Z" fill="white"/>
<path opacity="0.3" d="M84.2959 144.754V426.833C84.2959 434.011 92.7669 440.867 100.729 437.587C100.251 437.758 99.7381 437.814 99.2335 437.749C98.7289 437.685 98.2477 437.502 97.8306 437.217C97.4135 436.932 97.0729 436.553 96.8378 436.112C96.6026 435.671 96.4798 435.181 96.4798 434.683V152.551C96.5139 150.091 97.294 147.695 98.7213 145.669L85.6161 139.256C84.7509 140.966 84.2992 142.847 84.2959 144.754Z" fill="black"/>
<path opacity="0.1" d="M226.062 59.3498C225.403 59.37 224.752 59.4973 224.136 59.7262L90.7454 133.879C88.5148 135.118 86.7251 136.994 85.6161 139.256L98.7214 145.668C99.8082 144.009 101.284 142.627 103.026 141.636L236.417 67.4561C236.794 67.2441 237.212 67.1105 237.645 67.0637C238.077 67.0169 238.515 67.0579 238.931 67.1841C239.346 67.3102 239.731 67.5189 240.06 67.797C240.389 68.0752 240.656 68.4167 240.845 68.8004C239.841 65.5337 232.937 59.2154 226.062 59.3498Z" fill="white"/>
<path d="M185.26 114.09C186.209 113.566 186.979 113.983 186.979 115.031C186.944 115.609 186.771 116.171 186.475 116.673C186.179 117.175 185.768 117.602 185.274 117.922L159.146 132.709C158.211 133.247 157.455 132.803 157.455 131.741C157.486 131.171 157.654 130.616 157.946 130.121C158.237 129.626 158.644 129.205 159.132 128.891L185.26 114.09Z" fill="#263238"/>
<path d="M152.353 132.655C153.288 132.131 154.044 132.548 154.044 133.61C154.011 134.185 153.841 134.745 153.547 135.244C153.254 135.744 152.845 136.169 152.353 136.487C151.418 137.011 150.648 136.581 150.648 135.532C150.677 134.955 150.847 134.392 151.143 133.892C151.44 133.391 151.855 132.968 152.353 132.655Z" fill="#263238"/>
<path d="M169.13 111.953C171 110.891 172.513 111.738 172.513 113.835C172.455 114.984 172.119 116.103 171.533 117.101C170.948 118.098 170.129 118.946 169.144 119.575C167.273 120.637 165.719 119.777 165.719 117.666C165.789 116.519 166.134 115.404 166.726 114.411C167.319 113.419 168.142 112.576 169.13 111.953Z" fill="#263238"/>
<path d="M169.13 377.496C172.953 375.345 176.006 377.066 176.006 381.341C175.884 383.684 175.198 385.966 174.003 388.001C172.808 390.035 171.138 391.765 169.13 393.05C165.321 395.201 162.158 393.44 162.144 389.151C162.287 386.808 162.994 384.531 164.208 382.505C165.422 380.48 167.108 378.763 169.13 377.496Z" fill="#263238"/>
<path d="M234.34 96.695L279.39 133.247L262.971 142.523L217.934 105.971L234.34 96.695Z" fill="#5A4FDC"/>
<path d="M201.515 115.247L246.552 151.785L230.132 161.061L185.109 124.522L201.515 115.247Z" fill="#5A4FDC"/>
<path d="M185.109 124.522L230.132 161.061L213.713 170.337L168.69 133.798L185.109 124.522Z" fill="white"/>
<path d="M217.934 105.971L262.971 142.523L246.551 151.785L201.515 115.247L217.934 105.971Z" fill="white"/>
<path d="M135.865 152.336L180.874 188.875L164.454 198.151L119.445 161.612L135.865 152.336Z" fill="#5A4FDC"/>
<path d="M168.69 133.798L213.713 170.337L197.293 179.599L152.27 143.061L168.69 133.798Z" fill="#5A4FDC"/>
<path d="M102.723 171.063L119.445 161.612L164.454 198.151L147.691 207.615L102.723 171.063Z" fill="white"/>
<path d="M152.27 143.06L197.293 179.599L180.874 188.875L135.865 152.336L152.27 143.06Z" fill="white"/>
<path d="M279.39 133.247L262.971 142.523C262.97 143.611 263.262 144.679 263.817 145.622C264.372 146.565 265.171 147.348 266.134 147.893C267.097 148.438 268.19 148.725 269.303 148.726C270.416 148.728 271.509 148.443 272.473 147.9C274.567 146.704 276.304 144.992 277.511 142.935C278.717 140.879 279.351 138.549 279.349 136.178L279.39 133.247Z" fill="#5A4FDC"/>
<path d="M262.971 142.523L246.552 151.799C246.55 152.886 246.842 153.955 247.398 154.898C247.953 155.84 248.752 156.624 249.715 157.168C250.678 157.713 251.771 158.001 252.884 158.002C253.996 158.004 255.09 157.719 256.054 157.176C258.15 155.982 259.888 154.271 261.095 152.213C262.302 150.156 262.934 147.825 262.93 145.453L262.971 142.523Z" fill="#E0E0E0"/>
<path d="M246.552 151.799L230.132 161.061C230.131 162.149 230.423 163.218 230.978 164.16C231.533 165.103 232.333 165.886 233.296 166.431C234.259 166.976 235.351 167.263 236.464 167.265C237.577 167.266 238.67 166.981 239.634 166.438C241.731 165.244 243.469 163.533 244.676 161.476C245.882 159.418 246.515 157.087 246.51 154.716L246.552 151.799Z" fill="#5A4FDC"/>
<path d="M230.132 161.061L213.713 170.337C213.707 171.426 213.996 172.497 214.551 173.442C215.105 174.387 215.905 175.173 216.869 175.718C217.834 176.264 218.928 176.551 220.043 176.55C221.157 176.55 222.251 176.261 223.215 175.714C225.31 174.522 227.048 172.813 228.255 170.758C229.461 168.703 230.095 166.374 230.091 164.005L230.132 161.061Z" fill="#E0E0E0"/>
<path d="M213.713 170.337L197.293 179.586C197.292 180.673 197.584 181.742 198.139 182.685C198.694 183.627 199.494 184.411 200.457 184.956C201.42 185.5 202.512 185.788 203.625 185.789C204.738 185.791 205.831 185.506 206.796 184.963C208.892 183.769 210.63 182.058 211.837 180C213.043 177.943 213.676 175.612 213.671 173.24L213.713 170.337Z" fill="#5A4FDC"/>
<path d="M197.293 179.586L180.874 188.848C180.873 189.936 181.164 191.005 181.72 191.947C182.275 192.89 183.074 193.673 184.037 194.218C185 194.763 186.093 195.05 187.206 195.052C188.318 195.053 189.412 194.768 190.376 194.225C192.47 193.029 194.207 191.317 195.414 189.261C196.62 187.204 197.254 184.874 197.252 182.503L197.293 179.586Z" fill="#E0E0E0"/>
<path d="M180.874 188.875L164.454 198.151C164.449 199.24 164.738 200.311 165.292 201.256C165.847 202.201 166.646 202.987 167.611 203.532C168.575 204.078 169.67 204.365 170.784 204.364C171.899 204.364 172.993 204.075 173.957 203.528C176.059 202.341 177.803 200.632 179.011 198.573C180.218 196.514 180.847 194.179 180.832 191.805L180.874 188.875Z" fill="#5A4FDC"/>
<path opacity="0.2" d="M279.39 133.247L262.971 142.523C262.97 143.611 263.262 144.679 263.817 145.622C264.372 146.565 265.171 147.348 266.134 147.893C267.097 148.438 268.19 148.725 269.303 148.726C270.416 148.728 271.509 148.443 272.473 147.9C274.567 146.704 276.304 144.992 277.511 142.935C278.717 140.879 279.351 138.549 279.349 136.178L279.39 133.247Z" fill="black"/>
<path opacity="0.2" d="M246.552 151.799L230.132 161.061C230.131 162.149 230.423 163.218 230.978 164.16C231.533 165.103 232.333 165.886 233.296 166.431C234.259 166.976 235.351 167.263 236.464 167.265C237.577 167.266 238.67 166.981 239.634 166.438C241.731 165.244 243.469 163.533 244.676 161.476C245.882 159.418 246.515 157.087 246.51 154.716L246.552 151.799Z" fill="black"/>
<path opacity="0.2" d="M213.713 170.337L197.293 179.586C197.292 180.673 197.584 181.742 198.139 182.685C198.694 183.627 199.494 184.411 200.457 184.956C201.42 185.5 202.512 185.788 203.625 185.789C204.738 185.791 205.831 185.506 206.796 184.963C208.892 183.769 210.63 182.058 211.837 180C213.043 177.943 213.676 175.612 213.671 173.24L213.713 170.337Z" fill="black"/>
<path opacity="0.2" d="M180.874 188.875L164.454 198.151C164.449 199.24 164.738 200.311 165.292 201.256C165.847 202.201 166.646 202.987 167.611 203.532C168.575 204.078 169.67 204.365 170.784 204.364C171.899 204.364 172.993 204.075 173.957 203.528C176.059 202.341 177.803 200.632 179.011 198.573C180.218 196.514 180.847 194.179 180.832 191.805L180.874 188.875Z" fill="black"/>
<path d="M164.454 198.151L147.691 207.561C147.687 208.648 147.976 209.717 148.53 210.66C149.084 211.604 149.882 212.387 150.844 212.933C151.806 213.478 152.899 213.766 154.011 213.767C155.123 213.768 156.216 213.482 157.18 212.938C159.393 211.689 161.231 209.892 162.508 207.728C163.785 205.564 164.456 203.109 164.454 200.611V198.151Z" fill="#E0E0E0"/>
<path d="M183.597 245.457C178.726 246.022 174.001 247.447 169.652 249.665C159.514 254.777 151.768 263.496 148.007 274.024C146.376 278.546 145.598 283.319 145.711 288.112C146.792 283.583 148.354 279.177 150.373 274.965C154.888 265.528 162.008 257.511 170.931 251.816C174.917 249.275 179.162 247.144 183.597 245.457Z" fill="#5A4FDC"/>
<path d="M170.753 315.846C168.079 315.801 165.43 315.348 162.9 314.501C160.09 313.59 157.495 312.137 155.27 310.227C153.044 308.318 151.234 305.99 149.946 303.384C148.755 301.045 147.952 298.535 147.567 295.95C147.28 298.656 147.642 301.39 148.626 303.935C149.734 306.9 151.587 309.544 154.014 311.625C156.441 313.707 159.364 315.158 162.515 315.846C165.224 316.472 168.044 316.472 170.753 315.846Z" fill="#5A4FDC"/>
<path d="M192.068 272.612C192.336 276.195 192.281 279.794 191.903 283.367C191.032 291.44 188.326 299.221 183.982 306.14C182.052 309.215 179.848 312.116 177.395 314.811C180.554 312.745 183.341 310.183 185.646 307.229C190.98 300.422 193.879 292.09 193.897 283.515C193.904 279.807 193.286 276.124 192.068 272.612Z" fill="#5A4FDC"/>
<path d="M148.956 257.771C145.632 260.897 142.915 264.586 140.939 268.66C136.282 278.114 135.505 288.951 138.766 298.948C140.156 303.25 142.321 307.275 145.161 310.831C143.356 306.821 141.973 302.641 141.035 298.356C138.978 288.761 139.692 278.795 143.098 269.574C144.622 265.45 146.586 261.494 148.956 257.771Z" fill="#5A4FDC"/>
<path d="M201.487 259.357C201.136 255.686 199.788 252.173 197.582 249.181C195.078 245.648 191.575 242.905 187.501 241.289C183.427 239.672 178.959 239.252 174.644 240.08C170.932 240.736 167.464 242.341 164.592 244.731C167.821 243.183 171.32 242.244 174.906 241.962C178.862 241.607 182.848 242.184 186.53 243.643C190.212 245.103 193.483 247.403 196.069 250.35C198.439 252.993 200.277 256.049 201.487 259.357Z" fill="#5A4FDC"/>
<path d="M260.468 217.226C264.825 216.793 269.187 217.985 272.683 220.562C276.179 223.14 278.55 226.913 279.322 231.127L285.703 266.079L325.72 293.436L316.781 304.069L278.717 284.523C276.475 283.373 274.491 281.795 272.883 279.884C271.274 277.972 270.074 275.765 269.352 273.392L257.085 232.942L260.468 217.226Z" fill="#FFA8A7"/>
<path d="M275.32 254.787C278.856 252.947 281.688 250.037 283.392 246.492L279.803 230.468C278.887 226.399 276.472 222.801 273.019 220.359C269.565 217.918 265.314 216.803 261.073 217.227L260.468 217.294L257.085 233.036L262.366 256.212C266.719 257.275 271.318 256.769 275.32 254.787Z" fill="#455A64"/>
<path d="M275.32 254.787C271.318 256.769 266.719 257.274 262.366 256.212L263.741 261.925C268.705 263.014 281.426 262.651 284.74 252.38L283.365 246.465C281.673 250.016 278.85 252.935 275.32 254.787Z" fill="#455A64"/>
<path opacity="0.2" d="M275.32 254.787C278.856 252.947 281.688 250.037 283.392 246.492L279.803 230.468C278.887 226.399 276.472 222.801 273.019 220.359C269.565 217.918 265.314 216.803 261.073 217.227L260.468 217.294L257.085 233.036L262.366 256.212C266.719 257.275 271.318 256.769 275.32 254.787Z" fill="white"/>
<path opacity="0.5" d="M275.32 254.787C271.318 256.769 266.719 257.274 262.366 256.212L263.741 261.925C268.705 263.014 281.426 262.651 284.74 252.38L283.365 246.465C281.673 250.016 278.85 252.935 275.32 254.787Z" fill="white"/>
<path d="M269.324 232.269C269.324 232.269 267.729 220.372 260.468 217.267C260.468 217.267 243.086 222.362 228.674 227.712C222.975 229.744 217.392 232.077 211.952 234.703C208.68 237.472 199.287 245.713 194.873 247.931C192.717 248.984 190.39 249.666 187.997 249.947C184.973 250.422 182.069 251.458 179.444 252.999C166.214 260.473 155.529 278.541 155.571 293.422C155.571 303.169 160.246 309.07 167.163 309.89H167.48C168.572 310.004 169.674 310.004 170.766 309.89C182.799 309.783 202.092 309.689 209.67 307.565C245.066 297.402 272.9 272.344 269.324 232.269Z" fill="#455A64"/>
<path d="M235.592 227.39L240.776 218.194L261.637 231.933L253.386 242.769C251.654 243.598 249.764 244.066 247.837 244.143C245.91 244.219 243.987 243.902 242.192 243.212C240.418 242.413 238.831 241.265 237.53 239.84C236.229 238.416 235.241 236.745 234.629 234.931C234.263 233.675 234.16 232.36 234.325 231.065C234.49 229.769 234.921 228.519 235.592 227.39Z" fill="#FFA8A7"/>
<path opacity="0.2" d="M242.729 219.472C242.729 230.549 251.736 235.738 257.237 237.701L261.637 231.933L242.729 219.472Z" fill="black"/>
<path d="M233.309 208.421C232.539 203.998 231.755 199.455 232.635 195.045C233.515 190.636 236.43 186.334 240.886 185.044C241.791 183.159 243.085 181.477 244.687 180.105C246.29 178.733 248.165 177.7 250.196 177.072C254.177 176.009 258.295 175.52 262.421 175.62C266.973 175.353 271.541 175.601 276.035 176.359C280.563 177.15 284.678 179.432 287.696 182.825C289.243 184.908 290.341 187.276 290.922 189.785C291.504 192.295 291.557 194.894 291.079 197.425C290.093 202.482 288.178 207.324 285.427 211.715C276.681 212.32 267.77 213.301 259.024 213.906C254.569 214.363 250.08 214.403 245.616 214.027C241.062 213.308 236.802 211.367 233.309 208.421Z" fill="#263238"/>
<path d="M286.858 187.92C289.099 201.077 287.615 214.582 282.567 226.973C281.398 229.836 279.817 232.807 277.135 234.326C274.454 235.845 270.713 235.603 267.509 235.119C262.209 234.529 257.041 233.109 252.204 230.912C247.334 228.666 243.54 224.669 241.615 219.754C239.881 220.095 238.083 219.941 236.437 219.309C234.791 218.677 233.366 217.595 232.332 216.191C230.302 213.279 229.249 209.821 229.321 206.297C229.321 204.052 229.747 201.404 231.81 200.423C233.873 199.441 236.018 200.53 237.682 201.848C240.41 204.016 242.404 206.94 243.403 210.236C244.915 204.765 247.267 199.482 248.779 194.104C249.384 191.953 250.155 189.614 252.039 188.418C254.376 186.952 257.429 187.786 260.138 188.418C268.943 190.478 278.14 190.306 286.858 187.92Z" fill="#FFA8A7"/>
<path d="M270.576 204.496L277.108 215.237L269.324 216.675L270.576 204.496Z" fill="#F28F8F"/>
<path d="M261.816 220.372L267.729 223.182C267.224 223.841 266.513 224.32 265.703 224.546C264.893 224.771 264.03 224.731 263.246 224.432C262.568 224.017 262.057 223.388 261.796 222.649C261.536 221.91 261.543 221.107 261.816 220.372Z" fill="#F28F8F"/>
<path opacity="0.3" d="M261.816 220.372L267.729 223.182C267.224 223.841 266.513 224.32 265.703 224.546C264.893 224.771 264.03 224.731 263.246 224.432C262.568 224.017 262.057 223.388 261.796 222.649C261.536 221.91 261.543 221.107 261.816 220.372Z" fill="black"/>
<path d="M265.295 224.62C264.608 224.757 263.895 224.691 263.246 224.432C262.702 224.135 262.261 223.686 261.979 223.142C261.698 222.598 261.588 221.985 261.665 221.38C262.513 221.382 263.336 221.661 264.002 222.174C264.742 222.794 265.205 223.672 265.295 224.62Z" fill="#F28F8F"/>
<path d="M259.299 204.926C259.255 205.358 259.343 205.792 259.551 206.175C259.76 206.557 260.08 206.871 260.471 207.076C260.862 207.281 261.307 207.367 261.748 207.325C262.189 207.283 262.608 207.113 262.951 206.838C263.294 206.563 263.546 206.195 263.675 205.78C263.803 205.365 263.803 204.922 263.674 204.507C263.545 204.092 263.293 203.724 262.95 203.449C262.607 203.175 262.189 203.005 261.747 202.963C261.156 202.907 260.567 203.082 260.108 203.45C259.649 203.818 259.358 204.349 259.299 204.926Z" fill="#263238"/>
<path d="M278.057 206.055C278.013 206.483 278.1 206.915 278.306 207.295C278.513 207.675 278.83 207.986 279.218 208.19C279.606 208.394 280.047 208.481 280.485 208.44C280.923 208.399 281.339 208.232 281.68 207.961C282.022 207.689 282.273 207.324 282.402 206.913C282.532 206.502 282.534 206.062 282.408 205.65C282.282 205.237 282.034 204.871 281.696 204.596C281.357 204.321 280.942 204.151 280.504 204.106C280.213 204.076 279.918 204.103 279.637 204.185C279.356 204.267 279.094 204.402 278.866 204.584C278.639 204.765 278.45 204.988 278.311 205.24C278.172 205.493 278.086 205.77 278.057 206.055Z" fill="#263238"/>
<path d="M281.109 197.613L285.703 201.431C285.978 200.854 286.066 200.209 285.956 199.582C285.845 198.954 285.541 198.375 285.084 197.922C284.516 197.514 283.844 197.269 283.142 197.214C282.439 197.159 281.736 197.298 281.109 197.613Z" fill="#263238"/>
<path d="M262.82 197.317L257.553 200.167C257.398 199.55 257.441 198.9 257.674 198.307C257.908 197.713 258.321 197.204 258.859 196.847C259.499 196.558 260.208 196.449 260.908 196.532C261.607 196.615 262.269 196.887 262.82 197.317Z" fill="#263238"/>
<path d="M291.038 192.343C271.907 195.337 252.412 195.337 233.281 192.343C234.175 169.49 244.695 162.002 262.847 162.002C280.999 162.002 291.244 171.52 291.038 192.343Z" fill="#455A64"/>
<path d="M291.038 192.343C291.038 183.592 289.305 176.87 285.909 171.99L278.304 169.907C274.725 168.924 270.967 168.731 267.303 169.342L260.056 170.525C257.576 170.915 255.294 172.086 253.556 173.86C251.819 175.633 250.721 177.913 250.43 180.352L248.766 194.145C262.88 195.138 277.065 194.534 291.038 192.343Z" fill="#455A64"/>
<path opacity="0.29" d="M291.038 192.343C291.038 183.592 289.305 176.87 285.909 171.99L278.304 169.907C274.725 168.924 270.967 168.731 267.303 169.342L260.056 170.525C257.576 170.915 255.294 172.086 253.556 173.86C251.819 175.633 250.721 177.913 250.43 180.352L248.766 194.145C262.88 195.138 277.065 194.534 291.038 192.343Z" fill="white"/>
<path d="M293.307 173.106H289.952C288.865 173.106 287.793 173.106 286.72 173.227C276.882 173.926 267.558 177.793 260.207 184.224L248.903 194.145C262.972 195.128 277.11 194.523 291.038 192.343L298.395 183.619C299.177 182.674 299.671 181.533 299.819 180.327C299.967 179.12 299.763 177.897 299.231 176.799C298.7 175.7 297.862 174.771 296.814 174.118C295.766 173.465 294.55 173.114 293.307 173.106Z" fill="#455A64"/>
<path opacity="0.2" d="M293.307 173.106H289.952C288.865 173.106 287.793 173.106 286.72 173.227C276.882 173.926 267.558 177.793 260.207 184.224L248.903 194.145C262.972 195.128 277.11 194.523 291.038 192.343L298.395 183.619C299.177 182.674 299.671 181.533 299.819 180.327C299.967 179.12 299.763 177.897 299.231 176.799C298.7 175.7 297.862 174.771 296.814 174.118C295.766 173.465 294.55 173.114 293.307 173.106Z" fill="black"/>
<path d="M351.435 295.278L300.169 324.396L248.573 295.278L299.825 266.146L351.435 295.278Z" fill="#5A4FDC"/>
<g opacity="0.3">
<path opacity="0.3" d="M351.435 295.278L300.169 324.396L248.573 295.278L299.825 266.146L351.435 295.278Z" fill="white"/>
</g>
<path d="M351.435 295.278L351.284 346.254L300.018 375.372L300.169 324.396L351.435 295.278Z" fill="#5A4FDC"/>
<g opacity="0.1">
<path opacity="0.1" d="M351.435 295.278L351.284 346.254L300.018 375.372L300.169 324.396L351.435 295.278Z" fill="white"/>
</g>
<path d="M300.169 324.396L300.018 375.372L248.422 346.254L248.573 295.278L300.169 324.396Z" fill="#5A4FDC"/>
<path d="M309.094 291.54L326.449 281.176L317.592 276.175L300.169 286.338L309.094 291.54Z" fill="#E0E0E0"/>
<path d="M309.094 291.54L300.169 286.338L282.471 276.014L273.642 281.028L291.231 291.54L300.169 296.877L323.767 310.993L333.228 305.615L309.094 291.54Z" fill="white"/>
<path d="M291.231 291.54L267 305.669L276.489 311.033L300.169 296.877L291.231 291.54Z" fill="#E0E0E0"/>
<path d="M333.228 305.615L323.767 310.993L323.849 311.033L323.987 361.754L333.558 356.323L333.421 305.71L333.228 305.615Z" fill="#E0E0E0"/>
<path d="M276.489 311.033L267 305.669L266.918 305.71L266.766 356.619L276.338 362.01L276.489 311.033Z" fill="white"/>
<path opacity="0.2" d="M276.489 311.033L267 305.669L266.918 305.71L266.766 356.619L276.338 362.01L276.489 311.033Z" fill="black"/>
<path d="M300.142 306.946L289.416 313.359L300.142 319.422L310.841 313.345L300.142 306.946Z" fill="white"/>
<path d="M198.655 305.185C198.655 305.185 202.656 248.253 203.495 244.691C206.699 231.154 226.777 232.122 228.688 245.887C229.472 251.507 220.3 306.072 220.3 306.072L253.524 340.433L260.248 346.469L266.244 345.286L279.913 346.55C280.276 346.585 280.618 346.736 280.886 346.978C281.154 347.221 281.334 347.543 281.398 347.894C281.486 348.311 281.406 348.744 281.176 349.104C280.945 349.465 280.582 349.725 280.16 349.83L271.126 351.981L277.644 356.337C278.558 356.949 279.593 357.365 280.683 357.56L290.9 359.455C291.352 359.537 291.757 359.778 292.038 360.132C292.32 360.487 292.458 360.93 292.427 361.378C292.406 361.732 292.28 362.073 292.065 362.359C291.851 362.645 291.556 362.865 291.217 362.991L285.716 364.994C282.152 366.302 278.341 366.842 274.544 366.577C270.746 366.313 267.052 365.25 263.714 363.461L251.887 357.036C250.153 356.124 248.517 355.043 247.005 353.809L204.609 319.529C202.473 317.812 200.809 315.601 199.769 313.096C198.729 310.591 198.346 307.872 198.655 305.185Z" fill="#FFA8A7"/>
<path d="M228.152 283.367L232.401 252.448C232.665 250.341 232.501 248.203 231.92 246.158C231.339 244.113 230.351 242.2 229.014 240.528C227.676 238.855 226.015 237.457 224.124 236.413C222.234 235.368 220.152 234.698 217.996 234.44C215.841 234.183 213.655 234.343 211.563 234.911C209.47 235.479 207.513 236.444 205.803 237.752C204.092 239.06 202.662 240.684 201.594 242.532C200.525 244.38 199.84 246.415 199.576 248.522L196.028 280.073C200.847 282.795 206.199 284.491 211.735 285.051C217.27 285.612 222.865 285.024 228.152 283.327V283.367Z" fill="#455A64"/>
<path opacity="0.2" d="M228.152 283.367L232.401 252.448C232.665 250.341 232.501 248.203 231.92 246.158C231.339 244.113 230.351 242.2 229.014 240.528C227.676 238.855 226.015 237.457 224.124 236.413C222.234 235.368 220.152 234.698 217.996 234.44C215.841 234.183 213.655 234.343 211.563 234.911C209.47 235.479 207.513 236.444 205.803 237.752C204.092 239.06 202.662 240.684 201.594 242.532C200.525 244.38 199.84 246.415 199.576 248.522L196.028 280.073C200.847 282.795 206.199 284.491 211.735 285.051C217.27 285.612 222.865 285.024 228.152 283.327V283.367Z" fill="white"/>
<path d="M211.086 285.02C205.761 284.382 200.619 282.714 195.959 280.114L195.148 287.386C209.436 298.141 226.955 291.5 226.955 291.5L228.083 283.367C222.603 285.098 216.808 285.662 211.086 285.02Z" fill="#455A64"/>
<path opacity="0.5" d="M211.086 285.02C205.761 284.382 200.619 282.714 195.959 280.114L195.148 287.386C209.436 298.141 226.955 291.5 226.955 291.5L228.083 283.367C222.603 285.098 216.808 285.662 211.086 285.02Z" fill="white"/>
<path d="M582.696 388.99L605.002 389.635L627.307 388.99C628.256 403.777 625.327 418.726 621.27 426.053C620.31 427.933 618.764 429.468 616.856 430.435C610.268 434.159 599.638 434.159 593.093 430.435C591.159 429.448 589.612 427.865 588.692 425.932C584.649 418.565 581.748 403.643 582.696 388.99Z" fill="white"/>
<path d="M589.283 380.064C580.551 384.997 580.496 392.996 589.173 397.93C597.851 402.863 611.974 402.85 620.72 397.93C629.466 393.01 629.507 384.997 620.816 380.064C612.125 375.13 598.016 375.13 589.283 380.064Z" fill="#EBEBEB"/>
<path d="M592.735 382.027C585.86 385.871 585.86 392.109 592.653 395.967C599.446 399.825 610.447 399.812 617.268 395.967C624.089 392.122 624.144 385.871 617.337 382.027C610.53 378.182 599.556 378.182 592.735 382.027Z" fill="#E0E0E0"/>
<g opacity="0.15">
<path opacity="0.15" d="M592.735 382.027C585.86 385.871 585.86 392.109 592.653 395.967C599.446 399.825 610.447 399.812 617.268 395.967C624.089 392.122 624.144 385.871 617.337 382.027C610.53 378.182 599.556 378.182 592.735 382.027Z" fill="black"/>
</g>
<path d="M616.375 344.386C620.005 339.976 624.213 336.024 627.541 331.399C629.81 328.24 631.666 324.369 630.745 320.645C630.218 318.924 629.208 317.382 627.829 316.194C626.451 315.006 624.76 314.22 622.948 313.923C619.286 313.39 615.552 314.205 612.469 316.209C609.416 318.201 606.736 320.693 604.548 323.575C591.985 339.127 586.044 358.817 587.964 378.545C588.01 380.804 588.732 383 590.04 384.863C590.842 385.782 591.896 386.457 593.078 386.81C594.259 387.163 595.52 387.177 596.71 386.852C602.788 385.091 601.977 377.066 602.967 372.347C604.333 365.87 606.688 359.629 609.952 353.836C611.802 350.506 613.951 347.343 616.375 344.386Z" fill="#5A4FDC"/>
<path opacity="0.2" d="M616.375 344.386C620.005 339.976 624.213 336.024 627.541 331.399C629.81 328.24 631.666 324.369 630.745 320.645C630.218 318.924 629.208 317.382 627.829 316.194C626.451 315.006 624.76 314.22 622.948 313.923C619.286 313.39 615.552 314.205 612.469 316.209C609.416 318.201 606.736 320.693 604.548 323.575C591.985 339.127 586.044 358.817 587.964 378.545C588.01 380.804 588.732 383 590.04 384.863C590.842 385.782 591.896 386.457 593.078 386.81C594.259 387.163 595.52 387.177 596.71 386.852C602.788 385.091 601.977 377.066 602.967 372.347C604.333 365.87 606.688 359.629 609.952 353.836C611.802 350.506 613.951 347.343 616.375 344.386Z" fill="white"/>
<path d="M596.325 380.83C596.443 380.806 596.549 380.744 596.626 380.654C596.703 380.563 596.747 380.45 596.751 380.333C597.177 370.801 600.354 338.269 623.292 319.838C623.347 319.797 623.393 319.744 623.427 319.684C623.461 319.624 623.481 319.558 623.488 319.49C623.494 319.422 623.486 319.353 623.464 319.288C623.442 319.223 623.407 319.163 623.36 319.112C623.318 319.059 623.264 319.014 623.203 318.981C623.143 318.948 623.076 318.927 623.006 318.919C622.937 318.912 622.867 318.918 622.801 318.937C622.734 318.956 622.672 318.989 622.618 319.032C599.336 337.771 596.118 370.694 595.692 380.333C595.688 380.469 595.739 380.602 595.834 380.703C595.93 380.803 596.061 380.863 596.201 380.87L596.325 380.83Z" fill="#F0F0F0"/>
<path d="M592.983 381.852C593.463 383.938 594.369 385.908 595.648 387.642C596.926 389.377 598.55 390.842 600.422 391.948C603.931 393.581 607.836 394.223 611.699 393.803C615.608 393.351 619.448 392.448 623.14 391.114C624.983 390.509 627.018 389.703 627.266 387.471C627.293 386.888 627.19 386.305 626.964 385.764C626.739 385.224 626.396 384.737 625.959 384.339C625.587 383.979 625.192 383.642 624.776 383.33C624.585 383.191 624.441 382.997 624.366 382.776C624.29 382.554 624.285 382.315 624.353 382.091C624.42 381.867 624.556 381.669 624.743 381.522C624.929 381.376 625.157 381.289 625.395 381.274C626.489 381.201 627.577 381.066 628.654 380.87C631.183 380.485 633.558 379.44 635.53 377.846C636.961 376.607 638.049 375.034 638.693 373.275C639.243 371.769 639.408 369.887 638.239 368.772C637.518 368.184 636.64 367.811 635.709 367.696C634.898 367.521 634.073 367.373 633.261 367.252C633.027 367.218 632.81 367.11 632.644 366.945C632.478 366.779 632.372 366.565 632.342 366.334C632.313 366.104 632.361 365.871 632.48 365.67C632.598 365.469 632.781 365.312 633 365.222L636.465 363.811C637.461 363.494 638.363 362.945 639.092 362.211C639.54 361.529 639.832 360.76 639.946 359.957C640.06 359.153 639.994 358.336 639.752 357.56C639.326 355.436 638.583 353.393 638.074 351.295C637.459 349.229 637.36 347.048 637.786 344.937C631.301 344.231 624.74 344.659 618.409 346.2C616.504 346.587 614.701 347.356 613.115 348.459C610.956 350.153 610.365 352.68 610.626 355.436C610.635 355.547 610.603 355.658 610.538 355.75C610.472 355.842 610.376 355.908 610.266 355.938C610.155 355.968 610.038 355.96 609.933 355.915C609.828 355.87 609.743 355.791 609.691 355.691L607.532 351.658C607.208 351.084 606.671 350.652 606.032 350.452C605.393 350.252 604.699 350.299 604.094 350.583C602.154 351.533 600.432 352.859 599.033 354.481C598.26 355.34 597.67 356.342 597.3 357.427C596.929 358.512 596.784 359.659 596.874 360.8C597.141 363.935 597.679 367.043 598.483 370.089C598.536 370.262 598.531 370.448 598.468 370.618C598.406 370.788 598.289 370.934 598.135 371.035C597.982 371.136 597.799 371.186 597.614 371.177C597.429 371.169 597.252 371.103 597.108 370.99H597.012C596.417 370.54 595.67 370.328 594.922 370.398C592.969 370.627 592.474 372.562 592.336 374.216C592.238 376.777 592.455 379.341 592.983 381.852Z" fill="#5A4FDC"/>
<path opacity="0.2" d="M592.983 381.852C593.463 383.938 594.369 385.908 595.648 387.642C596.926 389.377 598.55 390.842 600.422 391.948C603.931 393.581 607.836 394.223 611.699 393.803C615.608 393.351 619.448 392.448 623.14 391.114C624.983 390.509 627.018 389.703 627.266 387.471C627.293 386.888 627.19 386.305 626.964 385.764C626.739 385.224 626.396 384.737 625.959 384.339C625.587 383.979 625.192 383.642 624.776 383.33C624.585 383.191 624.441 382.997 624.366 382.776C624.29 382.554 624.285 382.315 624.353 382.091C624.42 381.867 624.556 381.669 624.743 381.522C624.929 381.376 625.157 381.289 625.395 381.274C626.489 381.201 627.577 381.066 628.654 380.87C631.183 380.485 633.558 379.44 635.53 377.846C636.961 376.607 638.049 375.034 638.693 373.275C639.243 371.769 639.408 369.887 638.239 368.772C637.518 368.184 636.64 367.811 635.709 367.696C634.898 367.521 634.073 367.373 633.261 367.252C633.027 367.218 632.81 367.11 632.644 366.945C632.478 366.779 632.372 366.565 632.342 366.334C632.313 366.104 632.361 365.871 632.48 365.67C632.598 365.469 632.781 365.312 633 365.222L636.465 363.811C637.461 363.494 638.363 362.945 639.092 362.211C639.54 361.529 639.832 360.76 639.946 359.957C640.06 359.153 639.994 358.336 639.752 357.56C639.326 355.436 638.583 353.393 638.074 351.295C637.459 349.229 637.36 347.048 637.786 344.937C631.301 344.231 624.74 344.659 618.409 346.2C616.504 346.587 614.701 347.356 613.115 348.459C610.956 350.153 610.365 352.68 610.626 355.436C610.635 355.547 610.603 355.658 610.538 355.75C610.472 355.842 610.376 355.908 610.266 355.938C610.155 355.968 610.038 355.96 609.933 355.915C609.828 355.87 609.743 355.791 609.691 355.691L607.532 351.658C607.208 351.084 606.671 350.652 606.032 350.452C605.393 350.252 604.699 350.299 604.094 350.583C602.154 351.533 600.432 352.859 599.033 354.481C598.26 355.34 597.67 356.342 597.3 357.427C596.929 358.512 596.784 359.659 596.874 360.8C597.141 363.935 597.679 367.043 598.483 370.089C598.536 370.262 598.531 370.448 598.468 370.618C598.406 370.788 598.289 370.934 598.135 371.035C597.982 371.136 597.799 371.186 597.614 371.177C597.429 371.169 597.252 371.103 597.108 370.99H597.012C596.417 370.54 595.67 370.328 594.922 370.398C592.969 370.627 592.474 372.562 592.336 374.216C592.238 376.777 592.455 379.341 592.983 381.852Z" fill="black"/>
<path opacity="0.2" d="M592.983 381.852C593.463 383.938 594.369 385.908 595.648 387.642C596.926 389.377 598.55 390.842 600.422 391.948C603.931 393.581 607.836 394.223 611.699 393.803C615.608 393.351 619.448 392.448 623.14 391.114C624.983 390.509 627.018 389.703 627.266 387.471C627.293 386.888 627.19 386.305 626.964 385.764C626.739 385.224 626.396 384.737 625.959 384.339C625.587 383.979 625.192 383.642 624.776 383.33C624.585 383.191 624.441 382.997 624.366 382.776C624.29 382.554 624.285 382.315 624.353 382.091C624.42 381.867 624.556 381.669 624.743 381.522C624.929 381.376 625.157 381.289 625.395 381.274C626.489 381.201 627.577 381.066 628.654 380.87C631.183 380.485 633.558 379.44 635.53 377.846C636.961 376.607 638.049 375.034 638.693 373.275C639.243 371.769 639.408 369.887 638.239 368.772C637.518 368.184 636.64 367.811 635.709 367.696C634.898 367.521 634.073 367.373 633.261 367.252C633.027 367.218 632.81 367.11 632.644 366.945C632.478 366.779 632.372 366.565 632.342 366.334C632.313 366.104 632.361 365.871 632.48 365.67C632.598 365.469 632.781 365.312 633 365.222L636.465 363.811C637.461 363.494 638.363 362.945 639.092 362.211C639.54 361.529 639.832 360.76 639.946 359.957C640.06 359.153 639.994 358.336 639.752 357.56C639.326 355.436 638.583 353.393 638.074 351.295C637.459 349.229 637.36 347.048 637.786 344.937C631.301 344.231 624.74 344.659 618.409 346.2C616.504 346.587 614.701 347.356 613.115 348.459C610.956 350.153 610.365 352.68 610.626 355.436C610.635 355.547 610.603 355.658 610.538 355.75C610.472 355.842 610.376 355.908 610.266 355.938C610.155 355.968 610.038 355.96 609.933 355.915C609.828 355.87 609.743 355.791 609.691 355.691L607.532 351.658C607.208 351.084 606.671 350.652 606.032 350.452C605.393 350.252 604.699 350.299 604.094 350.583C602.154 351.533 600.432 352.859 599.033 354.481C598.26 355.34 597.67 356.342 597.3 357.427C596.929 358.512 596.784 359.659 596.874 360.8C597.141 363.935 597.679 367.043 598.483 370.089C598.536 370.262 598.531 370.448 598.468 370.618C598.406 370.788 598.289 370.934 598.135 371.035C597.982 371.136 597.799 371.186 597.614 371.177C597.429 371.169 597.252 371.103 597.108 370.99H597.012C596.417 370.54 595.67 370.328 594.922 370.398C592.969 370.627 592.474 372.562 592.336 374.216C592.238 376.777 592.455 379.341 592.983 381.852Z" fill="white"/>
<path d="M603.255 391.437C604.47 386.346 606.217 381.391 608.467 376.649C608.469 376.576 608.486 376.504 608.516 376.437C608.547 376.37 608.591 376.309 608.646 376.259L609.017 375.493C608.382 369.591 606.628 363.856 603.847 358.582C603.78 358.461 603.763 358.32 603.798 358.188C603.834 358.056 603.92 357.942 604.039 357.869C604.163 357.801 604.31 357.785 604.446 357.823C604.583 357.86 604.699 357.95 604.768 358.071C607.375 362.985 609.096 368.301 609.856 373.786C614.27 365.128 621.311 354.965 632.175 347.625C632.292 347.547 632.436 347.518 632.575 347.543C632.714 347.568 632.837 347.646 632.918 347.76C632.957 347.815 632.984 347.878 632.998 347.944C633.013 348.01 633.013 348.078 633.001 348.144C632.988 348.21 632.962 348.273 632.924 348.33C632.886 348.386 632.837 348.434 632.78 348.472C621.572 356.108 614.504 366.674 610.214 375.439C615.996 372.886 622.414 372.036 628.682 372.993C628.821 373.022 628.943 373.103 629.023 373.218C629.102 373.333 629.133 373.474 629.108 373.611C629.088 373.713 629.036 373.805 628.959 373.878C628.883 373.95 628.787 373.997 628.682 374.014H628.476C628.38 374.014 618.245 372.199 609.471 376.985C607.237 381.678 605.505 386.584 604.3 391.625C604.276 391.725 604.223 391.816 604.148 391.888C604.072 391.959 603.977 392.008 603.874 392.028H603.668C603.534 392.002 603.415 391.925 603.338 391.815C603.261 391.704 603.231 391.568 603.255 391.437Z" fill="#F0F0F0"/>
<path d="M95.0497 433.541L69.6642 434.267L44.2924 433.541C43.1923 450.291 46.5477 467.364 51.1683 475.712C52.2587 477.86 54.0219 479.612 56.2014 480.713C63.6823 484.947 75.7837 484.947 83.2233 480.713C85.4317 479.598 87.1977 477.796 88.2427 475.591C92.822 467.189 96.1361 450.21 95.0497 433.541Z" fill="white"/>
<path d="M87.555 423.378C97.4975 428.997 97.5525 438.085 87.6788 443.704C77.8051 449.323 61.7295 449.31 51.787 443.704C41.8446 438.098 41.7896 428.997 51.6633 423.378C61.5369 417.758 77.6126 417.772 87.555 423.378Z" fill="#EBEBEB"/>
<path d="M83.5945 425.596C91.3505 429.978 91.3917 437.076 83.6908 441.459C75.9899 445.841 63.4484 445.828 55.6925 441.459C47.9365 437.09 47.8953 429.978 55.5962 425.596C63.2971 421.213 75.8661 421.24 83.5945 425.596Z" fill="#E0E0E0"/>
<g opacity="0.15">
<path opacity="0.15" d="M83.5945 425.596C91.3505 429.978 91.3917 437.076 83.6908 441.459C75.9899 445.841 63.4484 445.828 55.6925 441.459C47.9365 437.09 47.8953 429.978 55.5962 425.596C63.2971 421.213 75.8661 421.24 83.5945 425.596Z" fill="black"/>
</g>
<path d="M111.401 327.676C54.2074 345.985 53.6436 383.384 66.5839 410.015C69.8293 415.392 79.6755 418.31 88.229 385.186L73.2122 387.068L90.718 378.383L95.2698 365.101L80.6656 366.163L99.2028 358.541C102.612 348.016 106.686 337.708 111.401 327.676Z" fill="#5A4FDC"/>
<path opacity="0.2" d="M111.401 327.676C54.2074 345.985 53.6436 383.384 66.5839 410.015C69.8293 415.392 79.6755 418.31 88.229 385.186L73.2122 387.068L90.718 378.383L95.2698 365.101L80.6656 366.163L99.2028 358.541C102.612 348.016 106.686 337.708 111.401 327.676Z" fill="black"/>
<path opacity="0.2" d="M111.401 327.676C54.2074 345.985 53.6436 383.384 66.5839 410.015C69.8293 415.392 79.6755 418.31 88.229 385.186L73.2122 387.068L90.718 378.383L95.2698 365.101L80.6656 366.163L99.2028 358.541C102.612 348.016 106.686 337.708 111.401 327.676Z" fill="white"/>
<path d="M95.2147 337.032C65.0574 359.402 62.3346 385.065 70.8606 411.843C67.849 388.264 64.5898 364.416 95.2147 337.032Z" fill="white"/>
<path d="M14.5337 365.666C70.9154 373.423 77.7912 408.173 70.2553 435.073C68.1513 440.625 59.4741 444.927 45.8737 415.46L60.2166 414.841L42.3395 409.545L35.8487 397.903L49.6004 396.558L31.0494 392.526C26.1092 383.252 20.5937 374.282 14.5337 365.666Z" fill="#5A4FDC"/>
<path opacity="0.2" d="M14.5337 365.666C70.9154 373.423 77.7912 408.173 70.2553 435.073C68.1513 440.625 59.4741 444.927 45.8737 415.46L60.2166 414.841L42.3395 409.545L35.8487 397.903L49.6004 396.558L31.0494 392.526C26.1092 383.252 20.5937 374.282 14.5337 365.666Z" fill="white"/>
<path opacity="0.1" d="M14.5337 365.666C70.9154 373.423 77.7912 408.173 70.2553 435.073C68.1513 440.625 59.4741 444.927 45.8737 415.46L60.2166 414.841L42.3395 409.545L35.8487 397.903L49.6004 396.558L31.0494 392.526C26.1092 383.252 20.5937 374.282 14.5337 365.666Z" fill="black"/>
<path d="M31.187 371.823C63.0771 387.767 69.9667 411.212 66.5838 437.533C65.3874 415.016 64.3423 392.284 31.187 371.823Z" fill="white"/>
<path d="M127.889 378.693C76.1962 379.513 66.0062 410.082 69.7191 435.154C70.9843 440.383 78.3139 445.209 93.9495 420.138L81.1193 417.96L97.745 415.177L104.937 405.431L92.6706 402.675L109.86 401.022C115.395 393.224 121.416 385.767 127.889 378.693Z" fill="#5A4FDC"/>
<path d="M112.184 382.349C81.6144 393.225 72.7171 413.618 72.7583 437.708C76.4025 417.611 79.9229 397.231 112.184 382.349Z" fill="white"/>
<path opacity="0.2" d="M127.889 378.693C76.1962 379.513 66.0062 410.082 69.7191 435.154C70.9843 440.383 78.3139 445.209 93.9495 420.138L81.1193 417.96L97.745 415.177L104.937 405.431L92.6706 402.675L109.86 401.022C115.395 393.224 121.416 385.767 127.889 378.693Z" fill="white"/>
<path d="M420.396 308.358C406.823 317.58 391.518 323.952 380.2 336.307C359.036 359.375 358.541 396.505 375.167 422.894C391.793 449.283 422.72 465.133 454.212 468.762C487.216 472.58 521.911 463.654 547.833 443.22C573.755 422.787 590.243 390.993 590.229 358.528C590.215 326.063 573.177 293.625 545.316 275.853C519.889 259.721 483.365 255.029 457.856 273.567C444.971 282.978 436.362 296.784 423.477 306.194C422.542 306.92 421.496 307.632 420.396 308.358Z" fill="#5A4FDC"/>
<path opacity="0.2" d="M420.396 308.358C406.823 317.58 391.518 323.952 380.2 336.307C359.036 359.375 358.541 396.505 375.167 422.894C391.793 449.283 422.72 465.133 454.212 468.762C487.216 472.58 521.911 463.654 547.833 443.22C573.755 422.787 590.243 390.993 590.229 358.528C590.215 326.063 573.177 293.625 545.316 275.853C519.889 259.721 483.365 255.029 457.856 273.567C444.971 282.978 436.362 296.784 423.477 306.194C422.542 306.92 421.496 307.632 420.396 308.358Z" fill="black"/>
<path opacity="0.1" d="M420.396 308.358C406.823 317.58 391.518 323.952 380.2 336.307C359.036 359.375 358.541 396.505 375.167 422.894C391.793 449.283 422.72 465.133 454.212 468.762C487.216 472.58 521.911 463.654 547.833 443.22C573.755 422.787 590.243 390.993 590.229 358.528C590.215 326.063 573.177 293.625 545.316 275.853C519.889 259.721 483.365 255.029 457.856 273.567C444.971 282.978 436.362 296.784 423.477 306.194C422.542 306.92 421.496 307.632 420.396 308.358Z" fill="white"/>
<path opacity="0.1" d="M425.98 443.556C425.98 443.328 426.048 443.113 426.076 442.898C427.209 435.712 430.607 429.05 435.795 423.84C440.984 418.631 447.705 415.133 455.023 413.833C468.143 411.391 480.715 406.689 492.152 399.947C500.252 395.161 507.912 389.286 517.002 386.692C525.848 384.21 535.296 384.745 543.79 388.211C536.144 380.373 523.052 376.918 512.587 380.467C519.821 369.619 526.202 357.95 528.704 345.233C531.207 332.516 529.419 318.548 521.581 308.116C518.243 303.655 513.934 299.975 508.965 297.339C503.996 294.703 498.49 293.179 492.845 292.875C487.2 292.572 481.557 293.497 476.322 295.584C471.087 297.671 466.391 300.868 462.573 304.944C454.803 313.252 450.43 324.947 445.328 335.03C441.656 342.275 437.875 349.696 431.824 355.194C422.72 363.529 409.601 366.527 400.195 374.499C389.483 383.546 384.862 397.997 384.821 411.83C384.986 421.164 386.372 430.439 388.946 439.429C400.022 449.769 413.236 457.667 427.699 462.592C425.602 456.467 425.013 449.945 425.98 443.556Z" fill="black"/>
<path d="M572.558 354.052C572.128 331.6 563.571 310.025 548.407 293.158C533.242 276.292 512.453 265.225 489.732 261.926C486.579 262.232 483.451 262.744 480.367 263.458C504.264 264.698 526.793 274.74 543.421 291.564C560.049 308.387 569.541 330.743 569.987 354.132C570.606 384.393 555.451 415.245 529.475 436.646C509.122 453.424 482.086 464.555 452.355 468.547C452.988 468.641 453.634 468.722 454.267 468.789C456.935 469.098 459.616 469.313 462.311 469.461C488.715 464.447 512.629 453.813 531.07 438.542C557.693 416.643 573.177 385.065 572.558 354.052Z" fill="white"/>
<path d="M413.988 465.805L417.398 472.405C422.198 468.05 423.078 464.541 423.078 464.541C421.524 459.164 419.709 453.692 418.801 451.031C418.347 454.741 415.762 457.927 414.676 461.543C414.276 462.932 414.045 464.363 413.988 465.805Z" fill="#37474F"/>
<path d="M414.153 472.567L417.399 472.405L413.988 465.805C413.892 468.036 414.084 470.295 414.153 472.567Z" fill="#263238"/>
<path d="M416.628 443.247C415.452 441.582 414.102 440.041 412.599 438.649C413.422 441.533 413.398 444.584 412.53 447.455C411.527 451.273 409.698 454.862 408.776 458.707C407.662 463.385 407.924 468.413 405.888 472.795C404.882 474.922 403.382 476.79 401.509 478.25C399.635 479.711 397.438 480.725 395.093 481.211C393.365 481.681 391.516 481.463 389.95 480.606C389.293 480.149 388.809 479.492 388.575 478.737C387.555 480.82 386.316 482.794 384.876 484.625C383.281 486.642 381.287 488.873 381.727 491.347C381.986 492.38 382.553 493.314 383.356 494.032C384.159 494.75 385.162 495.219 386.237 495.38C388.391 495.676 390.585 495.496 392.659 494.855C397.218 493.893 401.569 492.16 405.517 489.734C409.497 487.249 412.404 483.422 413.686 478.979C414.154 476.838 414.32 474.644 414.181 472.459C414.181 470.201 413.919 467.929 414.016 465.737C414.068 464.296 414.295 462.866 414.689 461.476C415.79 457.86 418.375 454.674 418.815 450.963C418.815 450.762 418.884 450.574 418.897 450.372C418.928 447.823 418.134 445.329 416.628 443.247Z" fill="#455A64"/>
<path opacity="0.1" d="M416.628 443.247C415.452 441.582 414.102 440.041 412.599 438.649C413.422 441.533 413.398 444.584 412.53 447.455C411.527 451.273 409.698 454.862 408.776 458.707C407.662 463.385 407.924 468.413 405.888 472.795C404.882 474.922 403.382 476.79 401.509 478.25C399.635 479.711 397.438 480.725 395.093 481.211C393.365 481.681 391.516 481.463 389.95 480.606C389.293 480.149 388.809 479.492 388.575 478.737C387.555 480.82 386.316 482.794 384.876 484.625C383.281 486.642 381.287 488.873 381.727 491.347C381.986 492.38 382.553 493.314 383.356 494.032C384.159 494.75 385.162 495.219 386.237 495.38C388.391 495.676 390.585 495.496 392.659 494.855C397.218 493.893 401.569 492.16 405.517 489.734C409.497 487.249 412.404 483.422 413.686 478.979C414.154 476.838 414.32 474.644 414.181 472.459C414.181 470.201 413.919 467.929 414.016 465.737C414.068 464.296 414.295 462.866 414.689 461.476C415.79 457.86 418.375 454.674 418.815 450.963C418.815 450.762 418.884 450.574 418.897 450.372C418.928 447.823 418.134 445.329 416.628 443.247Z" fill="black"/>
<path d="M395.093 481.211C397.438 480.725 399.635 479.711 401.508 478.25C403.382 476.79 404.882 474.922 405.888 472.795C407.924 468.413 407.662 463.385 408.776 458.707C409.697 454.862 411.526 451.273 412.53 447.455C413.398 444.584 413.422 441.533 412.599 438.65C412.214 438.273 411.829 437.897 411.43 437.534C405.627 440.464 399.054 442.911 393.759 446.648C393.873 453.268 393.441 459.885 392.467 466.437C391.748 470.694 390.429 474.834 388.547 478.737C388.782 479.492 389.265 480.149 389.923 480.606C390.701 481.034 391.559 481.308 392.446 481.412C393.334 481.516 394.233 481.447 395.093 481.211Z" fill="#AB6160"/>
<path d="M375.387 463.761C374.438 469.233 370.148 480.377 370.148 480.377C370.148 480.377 390.239 481.17 390.693 480.27L396.592 471.343L375.387 463.761Z" fill="#FFA8A7"/>
<path d="M435.523 333.524L384.298 361.405C379.652 363.936 375.935 367.828 373.673 372.534C371.41 377.239 370.716 382.521 371.688 387.633L381.63 440.061L373.476 465.401C380.517 474.623 396.675 475.094 396.675 475.094C405.696 457.416 412.31 449.915 417.426 435.101C422.542 420.286 425.966 410.069 425.966 410.069L468.596 398.696C478.333 396.108 487.053 390.726 493.63 383.245C500.207 375.763 504.338 366.526 505.491 356.727C506.22 350.435 506.248 346.147 506.248 346.147L435.523 333.524Z" fill="#455A64"/>
<path opacity="0.2" d="M432.085 350.019C432.093 355.611 434.124 361.021 437.82 365.29L405.517 385.011C400.204 388.258 396.269 393.27 394.433 399.127L381.63 440.061L393.182 394.475C394.51 389.232 397.887 384.705 402.588 381.866L432.127 364.094C428.716 355.759 432.085 350.019 432.085 350.019Z" fill="black"/>
<path d="M381.053 505.785L381.521 513.152C387.695 511.001 389.909 508.11 389.909 508.11C390.638 502.558 391.174 496.832 391.422 494.035C389.496 497.275 385.838 499.211 383.377 502.101C382.447 503.229 381.666 504.466 381.053 505.785Z" fill="#37474F"/>
<path d="M378.481 512.049L381.521 513.152L381.053 505.785C380.063 507.788 379.32 509.952 378.481 512.049Z" fill="#263238"/>
<path d="M392.536 486.037C392.124 484.058 391.507 482.126 390.693 480.27C390.287 483.235 389.039 486.029 387.09 488.336C384.628 491.454 381.493 494.049 379.114 497.222C376.199 501.107 374.411 505.825 370.794 509.065C369.012 510.635 366.879 511.779 364.567 512.404C362.254 513.029 359.824 513.12 357.469 512.668C355.695 512.43 354.089 511.517 353 510.127C352.565 509.455 352.372 508.66 352.45 507.869C350.676 509.403 348.745 510.755 346.688 511.901C344.405 513.152 341.668 514.429 341.063 516.916C340.901 517.956 341.054 519.02 341.503 519.975C341.953 520.931 342.68 521.737 343.593 522.293C345.451 523.393 347.538 524.073 349.699 524.283C354.28 525.151 358.98 525.228 363.588 524.511C368.233 523.766 372.434 521.373 375.387 517.79C376.684 516 377.725 514.047 378.481 511.982C379.32 509.885 380.063 507.721 381.053 505.718C381.667 504.404 382.448 503.171 383.377 502.048C385.838 499.144 389.496 497.208 391.422 493.982C391.518 493.82 391.642 493.659 391.738 493.471C392.8 491.137 393.079 488.535 392.536 486.037Z" fill="#455A64"/>
<path d="M357.469 512.681C359.824 513.133 362.254 513.043 364.567 512.417C366.879 511.792 369.012 510.649 370.794 509.078C374.411 505.839 376.199 501.12 379.114 497.235C381.493 494.062 384.615 491.468 387.09 488.349C389.039 486.043 390.287 483.248 390.693 480.283L390.074 478.804C383.556 479.275 376.515 478.966 370.148 480.391C367.596 486.521 364.538 492.437 361.003 498.082C358.636 501.729 355.757 505.032 352.45 507.895C352.372 508.687 352.565 509.481 353 510.154C354.091 511.538 355.697 512.447 357.469 512.681Z" fill="#FFA8A7"/>
<path d="M488.109 259.492C496.458 240.521 496.951 219.124 489.485 199.805C487.092 193.701 483.709 187.706 478.167 183.982C471.071 179.304 461.899 179.371 453.345 179.613C448.807 179.747 444.173 179.882 439.91 181.414C437.786 182.12 435.869 183.319 434.323 184.909C432.778 186.499 431.652 188.432 431.04 190.542C425.443 189.534 419.805 193.849 418.292 199.213C416.78 204.577 418.76 210.411 422.239 214.821C425.718 219.23 430.49 222.389 435.386 225.279C432.443 226.785 430.27 230.253 429.252 233.345C428.235 236.45 428.476 239.819 429.926 242.756C427.291 242.782 424.726 243.597 422.58 245.092C420.433 246.588 418.807 248.69 417.921 251.117C417.206 253.546 417.097 256.107 417.602 258.587C418.106 261.066 419.211 263.39 420.823 265.367C424.107 269.309 428.632 272.079 433.694 273.245C438.731 274.395 443.935 274.668 449.069 274.051C454.377 279.079 464.099 278.971 470.769 275.853C477.438 272.734 485.153 266.106 488.109 259.492Z" fill="#263238"/>
<path d="M440.598 246.869H439.291C430.559 246.963 419.503 252.784 414.098 267.679L393.113 307.417L417.068 317.795L430.174 280.289L440.598 246.869Z" fill="#FFA8A7"/>
<path d="M423.766 273.245C422.102 277.936 421.992 282.991 421.73 288.032C421.469 293.073 420.878 298.975 418.554 303.398C415.992 301.664 412.926 300.787 409.812 300.898C406.699 301.01 403.706 302.104 401.282 304.016C399.539 305.454 398.204 307.306 397.404 309.393L417.068 317.916L430.174 280.41L436.623 259.734C433.674 261.045 431.019 262.913 428.812 265.232C426.605 267.551 424.89 270.274 423.766 273.245Z" fill="#AB6160"/>
<path d="M417.288 310.644C416.381 308.43 414.909 306.481 413.012 304.982C411.115 303.482 408.856 302.484 406.452 302.08C401.653 301.314 396.221 303.774 393.113 307.458C390.5 310.536 390.913 314.717 392.563 318.387C393.942 321.235 396.288 323.528 399.201 324.876C402.114 326.224 405.415 326.543 408.542 325.781C414.731 324.073 419.626 316.491 417.288 310.644Z" fill="#FFA8A7"/>
<path d="M442.798 246.143C433.557 247.582 427.822 270.435 424.824 279.119C421.717 288.086 425.938 294.592 430.641 300.01C431.491 300.994 432.122 302.141 432.494 303.377C432.866 304.613 432.97 305.911 432.8 307.189L423.147 342.504C449.687 361.768 494.188 352.438 506.262 346.147C506.402 333.81 503.739 321.597 498.464 310.388C494.91 303.149 492.907 295.276 492.579 287.252L492.125 274.293L495.329 251.924L472.281 246.546L451.97 245.659C448.906 245.65 445.843 245.812 442.798 246.143Z" fill="#5A4FDC"/>
<path opacity="0.4" d="M442.798 246.143C433.557 247.582 427.822 270.435 424.824 279.119C421.717 288.086 425.938 294.592 430.641 300.01C431.491 300.994 432.122 302.141 432.494 303.377C432.866 304.613 432.97 305.911 432.8 307.189L423.147 342.504C449.687 361.768 494.188 352.438 506.262 346.147C506.402 333.81 503.739 321.597 498.464 310.388C494.91 303.149 492.907 295.276 492.579 287.252L492.125 274.293L495.329 251.924L472.281 246.546L451.97 245.659C448.906 245.65 445.843 245.812 442.798 246.143Z" fill="black"/>
<path d="M442.592 348.177C442.592 348.177 442.592 348.177 442.592 348.096C442.592 348.016 442.592 348.016 442.592 347.935V347.854V347.787V347.706L426.915 319.167V319.086V319.005V318.925L426.846 318.83V318.736C426.777 318.642 426.777 318.642 426.708 318.548L426.626 318.467L426.557 318.373V318.306V318.239V318.172L426.323 317.97H426.241H426.172H426.09H425.993L425.897 317.903H425.787L405.27 305.938H405.16H405.063H404.953H404.857H404.761H404.665H404.582H404.486H404.376H404.279H404.169H403.894C403.793 305.941 403.695 305.979 403.619 306.046L401.474 308.452H401.543C401.364 308.587 401.35 308.869 401.612 309.34L417.289 337.879C418.166 339.201 419.354 340.298 420.754 341.079L438.782 351C439.704 351.511 440.268 351.524 440.35 351.148C440.35 351.148 440.35 351.282 440.35 351.309L442.509 348.903C442.516 348.867 442.516 348.831 442.509 348.795C442.516 348.764 442.516 348.732 442.509 348.701L442.592 348.177ZM401.942 307.955C401.942 307.955 401.942 307.955 402.065 307.955H402.134H401.942ZM422.569 319.341C422.734 319.476 422.913 319.61 423.064 319.758C422.954 319.61 422.775 319.476 422.61 319.341H422.569ZM423.697 320.417L423.917 320.645L423.697 320.417ZM440.433 350.65C440.407 350.447 440.342 350.251 440.24 350.072C440.334 350.235 440.399 350.413 440.433 350.597C440.433 350.597 440.419 350.57 440.433 350.65Z" fill="#455A64"/>
<path opacity="0.15" d="M442.592 348.177C442.592 348.177 442.592 348.177 442.592 348.096C442.592 348.016 442.592 348.016 442.592 347.935V347.854V347.787V347.706L426.915 319.167L424.522 321.479L440.213 350.019C440.306 350.182 440.371 350.359 440.405 350.543C440.422 350.598 440.424 350.656 440.412 350.713C440.4 350.769 440.374 350.821 440.336 350.866L442.495 348.459C442.503 348.424 442.503 348.387 442.495 348.352C442.502 348.321 442.502 348.289 442.495 348.258L442.592 348.177Z" fill="white"/>
<path opacity="0.2" d="M426.653 318.992V318.911V318.83L426.585 318.736V318.642C426.516 318.548 426.516 318.548 426.447 318.454L426.365 318.373L426.296 318.279V318.212V318.145V318.078L426.062 317.876H425.98H425.911H425.828H425.732L425.636 317.809H425.526L405.27 305.938H405.16H405.063H404.953H404.857H404.761H404.665H404.582H404.486H404.376H404.279H404.169H403.894C403.793 305.941 403.695 305.979 403.619 306.046L401.474 308.452C401.575 308.345 401.754 308.318 402.01 308.372C402.358 308.46 402.692 308.596 403.001 308.775L421.029 318.696C421.391 318.887 421.736 319.107 422.06 319.355C422.406 319.614 422.737 319.892 423.05 320.188C423.356 320.464 423.641 320.76 423.903 321.076C424.127 321.334 424.325 321.613 424.494 321.909L426.653 319.503V318.992Z" fill="white"/>
<path d="M504.171 259.398C501.614 255.11 498.258 251.816 493.17 251.44C493.17 251.44 484.919 255.634 484.919 274.67L485.469 322.299C484.273 322.769 483.076 323.267 481.894 323.751C471.836 327.979 461.323 331.086 450.554 333.013C444.938 328.653 437.949 326.334 430.779 326.453L433.433 331.292C428.4 334.451 417.013 328.765 417.013 328.765C416.175 335.702 420.781 342.907 426.887 346.55C432.993 350.193 491.217 344.843 503.566 337.033C511.694 331.897 509.768 282.789 509.768 282.789C510.328 274.621 508.379 266.476 504.171 259.398Z" fill="#FFA8A7"/>
<path d="M404.706 314.354C404.317 316.227 404.096 318.13 404.046 320.04C404.497 324.592 406.469 328.873 409.656 332.22C410.317 332.955 411.146 333.526 412.077 333.887C412.533 334.061 413.028 334.113 413.512 334.037C413.995 333.962 414.449 333.761 414.827 333.457C415.511 332.657 415.859 331.634 415.803 330.593C415.958 329.052 415.87 327.497 415.542 325.982C415.22 324.45 414.335 323.087 413.053 322.151C412.063 321.579 411.006 321.127 409.904 320.807C408.846 320.353 407.906 319.673 407.154 318.817L404.706 314.354Z" fill="#FFA8A7"/>
<path d="M451.901 236.827V254.814C450.1 256.481 448.367 258.39 448.202 260.769C448.171 261.909 448.461 263.034 449.041 264.023C449.621 265.012 450.468 265.825 451.489 266.375C453.57 267.451 456 267.683 458.255 267.02C460.485 266.348 462.53 265.19 464.237 263.633C466.657 261.446 468.609 258.81 469.978 255.879C471.348 252.948 472.107 249.78 472.213 246.56V228.318L451.901 236.827Z" fill="#FFA8A7"/>
<path d="M471.429 228.318C469.503 238.212 465.557 246.788 451.901 249.827V236.76L471.429 228.318Z" fill="#AB6160"/>
<path d="M466.657 217.913C466.458 219.497 466.458 221.1 466.657 222.685C466.88 223.881 467.493 224.975 468.403 225.804C468.847 226.197 469.382 226.478 469.962 226.621C470.543 226.764 471.15 226.765 471.731 226.624C471.346 225.065 471.592 223.42 472.417 222.034C473.241 220.647 474.582 219.626 476.159 219.182C477.735 218.738 479.426 218.906 480.879 219.652C482.332 220.397 483.434 221.662 483.957 223.182C484.281 224.278 484.354 225.431 484.171 226.558C483.988 227.684 483.553 228.758 482.898 229.702C481.57 231.584 479.814 233.139 477.768 234.246C476.59 234.684 475.291 234.703 474.1 234.3C472.908 233.897 471.9 233.098 471.25 232.041C465.378 239.959 454.831 246.143 444.696 245.713C441.921 245.681 439.214 244.869 436.898 243.374C432.965 240.685 432.498 236.289 431.838 231.988C430.887 226.562 430.698 221.035 431.274 215.56C432.195 208.005 435.303 200.477 441.065 195.395C445.149 211.554 460.744 216.945 466.657 217.913Z" fill="#FFA8A7"/>
<path d="M445.534 216.891L438.961 225.508L445.493 227.417L445.534 216.891Z" fill="#AB6160"/>
<path d="M451.571 231.248L446.25 233.13C446.626 233.734 447.193 234.202 447.865 234.464C448.537 234.725 449.278 234.767 449.976 234.582C450.592 234.288 451.086 233.797 451.376 233.19C451.666 232.584 451.735 231.898 451.571 231.248Z" fill="#AB6160"/>
<path opacity="0.3" d="M451.571 231.248L446.25 233.13C446.626 233.734 447.193 234.202 447.865 234.464C448.537 234.725 449.278 234.767 449.976 234.582C450.592 234.288 451.086 233.797 451.376 233.19C451.666 232.584 451.735 231.898 451.571 231.248Z" fill="black"/>
<path d="M448.202 234.569C448.781 234.736 449.397 234.736 449.976 234.569C450.461 234.356 450.872 234.01 451.16 233.573C451.448 233.137 451.6 232.628 451.599 232.109C450.82 232.014 450.034 232.215 449.402 232.67C448.77 233.125 448.34 233.8 448.202 234.555V234.569Z" fill="#AB6160"/>
<path d="M455.133 218.249C455.133 218.621 455.02 218.986 454.808 219.296C454.595 219.605 454.294 219.847 453.941 219.989C453.589 220.131 453.201 220.167 452.827 220.093C452.453 220.02 452.11 219.839 451.842 219.575C451.573 219.31 451.391 218.973 451.318 218.607C451.245 218.242 451.285 217.863 451.433 217.519C451.581 217.175 451.83 216.882 452.148 216.677C452.467 216.472 452.84 216.364 453.221 216.367C453.474 216.367 453.723 216.415 453.956 216.51C454.189 216.605 454.4 216.744 454.578 216.919C454.756 217.094 454.896 217.301 454.991 217.529C455.087 217.758 455.135 218.002 455.133 218.249Z" fill="#263238"/>
<path d="M439.002 217.563C438.995 218.061 438.788 218.536 438.425 218.886C438.062 219.236 437.573 219.432 437.063 219.432C436.553 219.432 436.063 219.233 435.702 218.88C435.341 218.527 435.138 218.049 435.138 217.55C435.138 217.05 435.341 216.572 435.702 216.219C436.063 215.866 436.553 215.668 437.063 215.668C437.318 215.668 437.57 215.717 437.805 215.812C438.041 215.907 438.254 216.047 438.434 216.223C438.614 216.399 438.757 216.608 438.855 216.838C438.952 217.068 439.002 217.314 439.002 217.563Z" fill="#263238"/>
<path d="M437.16 210.089L432.883 212.952C432.702 212.435 432.687 211.876 432.839 211.35C432.991 210.824 433.304 210.356 433.735 210.008C434.257 209.708 434.854 209.556 435.459 209.571C436.064 209.585 436.653 209.764 437.16 210.089Z" fill="#263238"/>
<path d="M453.62 209.927L457.87 212.831C458.058 212.316 458.082 211.757 457.937 211.228C457.792 210.7 457.485 210.227 457.058 209.873C456.537 209.568 455.939 209.412 455.331 209.421C454.724 209.431 454.131 209.606 453.62 209.927Z" fill="#263238"/>
</svg>
